<svg width="58" height="58" viewBox="0 0 58 58" fill="none" xmlns="http://www.w3.org/2000/svg">
<g clip-path="url(#clip0_94_782)">
<path d="M8.15625 45.3125V18.125H49.8438V45.3125C49.8438 47.8147 47.8147 49.8438 45.3125 49.8438H12.6875C10.1853 49.8438 8.15625 47.8147 8.15625 45.3125Z" fill="url(#paint0_linear_94_782)"/>
<path d="M49.8438 13.4125V20.8438H8.15625V13.4125C8.15625 11.0082 10.1192 9.0625 12.5443 9.0625H45.4557C47.8808 9.0625 49.8438 11.0082 49.8438 13.4125Z" fill="url(#paint1_linear_94_782)"/>
<path d="M22.3436 9.0625H16.6242C15.341 9.96422 14.5 11.4532 14.5 13.1406C14.5 15.892 16.733 18.125 19.4844 18.125C22.2358 18.125 24.4688 15.892 24.4688 13.1406C24.4688 11.4532 23.6278 9.96422 22.3436 9.0625Z" fill="url(#paint2_linear_94_782)"/>
<path d="M19.4844 15.4062C18.2383 15.4062 17.2188 14.3867 17.2188 13.1406V7.70312C17.2188 6.45703 18.2383 5.4375 19.4844 5.4375C20.7305 5.4375 21.75 6.45703 21.75 7.70312V13.1406C21.75 14.3867 20.7305 15.4062 19.4844 15.4062Z" fill="url(#paint3_linear_94_782)"/>
<path d="M41.3748 9.0625H35.6555C34.3723 9.96422 33.5312 11.4532 33.5312 13.1406C33.5312 15.892 35.7643 18.125 38.5156 18.125C41.267 18.125 43.5 15.892 43.5 13.1406C43.5 11.4532 42.659 9.96422 41.3748 9.0625Z" fill="url(#paint4_linear_94_782)"/>
<path d="M38.5156 15.4062C37.2695 15.4062 36.25 14.3867 36.25 13.1406V7.70312C36.25 6.45703 37.2695 5.4375 38.5156 5.4375C39.7617 5.4375 40.7812 6.45703 40.7812 7.70312V13.1406C40.7812 14.3867 39.7617 15.4062 38.5156 15.4062Z" fill="url(#paint5_linear_94_782)"/>
<path d="M35.3438 36.7068C35.3438 37.9583 36.3588 38.9715 37.6094 38.9706L38.966 38.9697C40.4686 38.9678 41.6875 40.1858 41.6875 41.6875C41.6875 43.1892 40.4704 44.4062 38.9688 44.4062H35.3438C33.8421 44.4062 32.625 45.6233 32.625 47.125C32.625 48.6267 33.8421 49.8438 35.3438 49.8438H45.3125C47.8147 49.8438 49.8438 47.8147 49.8438 45.3125V34.4375L37.6067 34.4429C36.3569 34.4429 35.3438 35.4561 35.3438 36.7068Z" fill="#FFB86A"/>
<path d="M8.15625 30.8125H16.2155C17.1182 30.8125 17.9555 30.1953 18.1005 29.3045C18.2845 28.169 17.4136 27.1875 16.3125 27.1875H14.9531C14.2028 27.1875 13.5938 26.5785 13.5938 25.8281C13.5938 25.0778 14.2028 24.4688 14.9531 24.4688H21.653C22.5557 24.4688 23.393 23.8516 23.538 22.9608C23.722 21.8252 22.8511 20.8438 21.75 20.8438H8.15625V30.8125Z" fill="url(#paint6_linear_94_782)"/>
<path d="M41.6875 25.375C40.9664 25.375 40.2749 25.6614 39.7651 26.1713C39.2552 26.6812 38.9688 27.3727 38.9688 28.0938C38.9688 28.8148 39.2552 29.5063 39.7651 30.0162C40.2749 30.5261 40.9664 30.8125 41.6875 30.8125C42.4086 30.8125 43.1001 30.5261 43.6099 30.0162C44.1198 29.5063 44.4062 28.8148 44.4062 28.0938C44.4062 27.3727 44.1198 26.6812 43.6099 26.1713C43.1001 25.6614 42.4086 25.375 41.6875 25.375Z" fill="#FFB977"/>
<path d="M21.75 33.5312H18.125C17.1236 33.5312 16.3125 32.7202 16.3125 31.7188V28.0938C16.3125 27.0923 17.1236 26.2812 18.125 26.2812H21.75C22.7514 26.2812 23.5625 27.0923 23.5625 28.0938V31.7188C23.5625 32.7202 22.7514 33.5312 21.75 33.5312ZM32.625 31.7188V28.0938C32.625 27.0923 31.8139 26.2812 30.8125 26.2812H27.1875C26.1861 26.2812 25.375 27.0923 25.375 28.0938V31.7188C25.375 32.7202 26.1861 33.5312 27.1875 33.5312H30.8125C31.8139 33.5312 32.625 32.7202 32.625 31.7188ZM41.6875 31.7188V28.0938C41.6875 27.0923 40.8764 26.2812 39.875 26.2812H36.25C35.2486 26.2812 34.4375 27.0923 34.4375 28.0938V31.7188C34.4375 32.7202 35.2486 33.5312 36.25 33.5312H39.875C40.8764 33.5312 41.6875 32.7202 41.6875 31.7188ZM23.5625 40.7812V37.1562C23.5625 36.1548 22.7514 35.3438 21.75 35.3438H18.125C17.1236 35.3438 16.3125 36.1548 16.3125 37.1562V40.7812C16.3125 41.7827 17.1236 42.5938 18.125 42.5938H21.75C22.7514 42.5938 23.5625 41.7827 23.5625 40.7812ZM32.625 40.7812V37.1562C32.625 36.1548 31.8139 35.3438 30.8125 35.3438H27.1875C26.1861 35.3438 25.375 36.1548 25.375 37.1562V40.7812C25.375 41.7827 26.1861 42.5938 27.1875 42.5938H30.8125C31.8139 42.5938 32.625 41.7827 32.625 40.7812ZM41.6875 40.7812V37.1562C41.6875 36.1548 40.8764 35.3438 39.875 35.3438H36.25C35.2486 35.3438 34.4375 36.1548 34.4375 37.1562V40.7812C34.4375 41.7827 35.2486 42.5938 36.25 42.5938H39.875C40.8764 42.5938 41.6875 41.7827 41.6875 40.7812Z" fill="url(#paint7_linear_94_782)"/>
<path d="M47.125 38.0625C44.7215 38.0625 42.4164 39.0173 40.7168 40.7168C39.0173 42.4164 38.0625 44.7215 38.0625 47.125C38.0625 49.5285 39.0173 51.8336 40.7168 53.5332C42.4164 55.2327 44.7215 56.1875 47.125 56.1875C49.5285 56.1875 51.8336 55.2327 53.5332 53.5332C55.2327 51.8336 56.1875 49.5285 56.1875 47.125C56.1875 44.7215 55.2327 42.4164 53.5332 40.7168C51.8336 39.0173 49.5285 38.0625 47.125 38.0625Z" fill="white"/>
<path d="M47.125 36.25C41.1193 36.25 36.25 41.1193 36.25 47.125C36.25 53.1307 41.1193 58 47.125 58C53.1307 58 58 53.1307 58 47.125C58 41.1193 53.1307 36.25 47.125 36.25ZM47.125 54.375C43.1212 54.375 39.875 51.1288 39.875 47.125C39.875 43.1212 43.1212 39.875 47.125 39.875C51.1288 39.875 54.375 43.1212 54.375 47.125C54.375 51.1288 51.1288 54.375 47.125 54.375Z" fill="url(#paint8_linear_94_782)"/>
<path d="M51.3907 50.1093L48.8704 47.589C48.9094 47.4395 48.9375 47.2863 48.9375 47.125C48.9375 46.4562 48.5705 45.878 48.0312 45.5635V42.5938C48.0312 42.0926 47.6262 41.6875 47.125 41.6875C46.6238 41.6875 46.2188 42.0926 46.2188 42.5938V45.5635C45.6795 45.8771 45.3125 46.4553 45.3125 47.125C45.3125 48.1264 46.1236 48.9375 47.125 48.9375C47.2863 48.9375 47.4395 48.9094 47.589 48.8704L50.1093 51.3907C50.286 51.5674 50.518 51.6562 50.75 51.6562C50.982 51.6562 51.214 51.5674 51.3907 51.3907C51.7451 51.0364 51.7451 50.4636 51.3907 50.1093Z" fill="url(#paint9_linear_94_782)"/>
</g>
<defs>
<linearGradient id="paint0_linear_94_782" x1="29" y1="49.8438" x2="29" y2="18.125" gradientUnits="userSpaceOnUse">
<stop stop-color="#FFC662"/>
<stop offset="0.004" stop-color="#FFC662"/>
<stop offset="0.609" stop-color="#FFC582"/>
<stop offset="1" stop-color="#FFC491"/>
</linearGradient>
<linearGradient id="paint1_linear_94_782" x1="29" y1="20.8438" x2="29" y2="9.0625" gradientUnits="userSpaceOnUse">
<stop stop-color="#FF634D"/>
<stop offset="0.208" stop-color="#FD6464"/>
<stop offset="0.522" stop-color="#FC6582"/>
<stop offset="0.793" stop-color="#FA6694"/>
<stop offset="0.989" stop-color="#FA669A"/>
<stop offset="1" stop-color="#FA669A"/>
</linearGradient>
<linearGradient id="paint2_linear_94_782" x1="19.4844" y1="18.125" x2="19.4844" y2="9.0625" gradientUnits="userSpaceOnUse">
<stop stop-color="#FF5840"/>
<stop offset="0.007" stop-color="#FF5840"/>
<stop offset="0.989" stop-color="#FA528C"/>
<stop offset="1" stop-color="#FA528C"/>
</linearGradient>
<linearGradient id="paint3_linear_94_782" x1="19.4844" y1="5.4375" x2="19.4844" y2="15.4062" gradientUnits="userSpaceOnUse">
<stop stop-color="#A4A4A4"/>
<stop offset="0.63" stop-color="#7F7F7F"/>
<stop offset="1" stop-color="#6F6F6F"/>
</linearGradient>
<linearGradient id="paint4_linear_94_782" x1="38.5156" y1="18.125" x2="38.5156" y2="9.0625" gradientUnits="userSpaceOnUse">
<stop stop-color="#FF5840"/>
<stop offset="0.007" stop-color="#FF5840"/>
<stop offset="0.989" stop-color="#FA528C"/>
<stop offset="1" stop-color="#FA528C"/>
</linearGradient>
<linearGradient id="paint5_linear_94_782" x1="38.5156" y1="5.4375" x2="38.5156" y2="15.4062" gradientUnits="userSpaceOnUse">
<stop stop-color="#A4A4A4"/>
<stop offset="0.63" stop-color="#7F7F7F"/>
<stop offset="1" stop-color="#6F6F6F"/>
</linearGradient>
<linearGradient id="paint6_linear_94_782" x1="15.8594" y1="49.0508" x2="15.8594" y2="19.8206" gradientUnits="userSpaceOnUse">
<stop stop-color="#FFCE76"/>
<stop offset="0.004" stop-color="#FFCE76"/>
<stop offset="0.605" stop-color="#FFCD92"/>
<stop offset="1" stop-color="#FFCCA0"/>
</linearGradient>
<linearGradient id="paint7_linear_94_782" x1="29" y1="42.5938" x2="29" y2="26.2812" gradientUnits="userSpaceOnUse">
<stop stop-color="#FFE79F"/>
<stop offset="0.119" stop-color="#FFE9A6"/>
<stop offset="1" stop-color="#FFF5D5"/>
</linearGradient>
<linearGradient id="paint8_linear_94_782" x1="47.125" y1="58" x2="47.125" y2="36.25" gradientUnits="userSpaceOnUse">
<stop stop-color="#155CDE"/>
<stop offset="0.625" stop-color="#2289E7"/>
<stop offset="1" stop-color="#289FEC"/>
</linearGradient>
<linearGradient id="paint9_linear_94_782" x1="48.4844" y1="41.6875" x2="48.4844" y2="51.6562" gradientUnits="userSpaceOnUse">
<stop stop-color="#919191"/>
<stop offset="1" stop-color="#6F6F6F"/>
</linearGradient>
<clipPath id="clip0_94_782">
<rect width="58" height="58" fill="white"/>
</clipPath>
</defs>
</svg>
