<svg width="56" height="37" viewBox="0 0 56 37" fill="none" xmlns="http://www.w3.org/2000/svg">
<path d="M55.9039 20.3477C55.9035 20.3466 55.9035 20.3455 55.9032 20.3444C55.8825 20.2759 55.8577 20.2086 55.8299 20.142C55.8281 20.1379 55.827 20.1335 55.8251 20.129C55.7992 20.068 55.7696 20.0081 55.7382 19.9492C55.7333 19.94 55.7296 19.9304 55.7245 19.9211C55.6945 19.8671 55.6605 19.8146 55.6257 19.7624C55.6172 19.7494 55.6098 19.7357 55.6009 19.7232C55.5657 19.6732 55.5269 19.6251 55.4869 19.5774C55.4758 19.5641 55.4666 19.5496 55.4547 19.5367C55.4026 19.4767 55.3463 19.419 55.2864 19.3635C54.5386 18.6727 53.5544 17.8073 52.3656 16.8568C52.1677 16.6984 51.9638 16.5375 51.7544 16.3751C51.4802 16.162 51.1931 15.9448 50.9005 15.7257L50.9001 15.7254C50.6659 15.5503 50.4254 15.3739 50.1793 15.1959C50.1779 15.1948 50.1767 15.194 50.1753 15.1929C49.9296 15.0153 49.678 14.837 49.4208 14.6575C49.4208 14.6575 49.4208 14.6575 49.4205 14.6575C48.7859 14.2147 48.1211 13.7688 47.4218 13.3263C46.6107 12.8131 45.7579 12.3047 44.8673 11.8127C44.6564 11.6961 44.4407 11.5818 44.2254 11.4671C42.927 10.7756 41.5555 10.121 40.118 9.53939C39.7828 9.40361 39.4443 9.27189 39.1024 9.14461C37.7349 8.63475 36.3141 8.19372 34.85 7.84777C34.1178 7.67498 33.3749 7.52588 32.6223 7.40378C31.4934 7.221 30.3424 7.0989 29.1739 7.04969C28.7843 7.03304 28.3929 7.0249 27.9996 7.0249C27.6062 7.0249 27.2148 7.03341 26.8252 7.04969C25.6567 7.09927 24.5057 7.221 23.3768 7.40378C22.6243 7.52551 21.8813 7.67461 21.1491 7.84777C19.685 8.19372 18.2642 8.63475 16.8967 9.14461C16.5548 9.27226 16.2163 9.40398 15.8811 9.53939C14.4436 10.121 13.0724 10.7756 11.7738 11.4671C11.5584 11.5818 11.3427 11.6961 11.1318 11.8127C10.2412 12.3047 9.38839 12.8131 8.57736 13.3263C7.87769 13.7688 7.21318 14.215 6.57827 14.6575C6.5779 14.6579 6.5779 14.6579 6.57753 14.6583C6.32075 14.8374 6.06915 15.0157 5.82348 15.1933C5.822 15.194 5.82089 15.1952 5.81941 15.1959C5.57336 15.3739 5.33286 15.5503 5.09828 15.7257C5.09828 15.7257 5.09791 15.7257 5.09791 15.7261C4.80525 15.9448 4.51813 16.162 4.24433 16.3751C4.03491 16.5379 3.83142 16.6984 3.6331 16.8568C2.44467 17.8073 1.46011 18.6727 0.712352 19.3635C0.652412 19.4187 0.596542 19.4767 0.544003 19.5367C0.532533 19.5496 0.522914 19.5641 0.511814 19.5774C0.472224 19.6251 0.433004 19.6728 0.397854 19.7232C0.388974 19.7357 0.381945 19.7494 0.373435 19.7624C0.338656 19.8146 0.304617 19.8671 0.274647 19.9211C0.269467 19.9304 0.265766 19.94 0.260956 19.9492C0.229507 20.0081 0.199537 20.068 0.174007 20.129C0.172157 20.1331 0.171047 20.1376 0.169197 20.142C0.141447 20.2086 0.117028 20.2759 0.0959383 20.3444C0.0955683 20.3455 0.0955687 20.3466 0.0951987 20.3477C0.0293394 20.5649 -0.00211022 20.7899 0.000109753 21.0148V22.8211C-0.00581018 23.4231 0.230987 24.0266 0.711982 24.471C4.70165 28.1546 15.4127 36.8099 27.9999 36.8099C40.5872 36.8099 51.2982 28.1546 55.2868 24.471C55.7678 24.0266 56.0046 23.4228 55.9986 22.8211V21.0148C56.0012 20.7899 55.9694 20.5649 55.9039 20.3477Z" fill="#382B73"/>
<path d="M0.00157313 20.2314C-0.0043468 20.8334 0.232451 21.4369 0.713445 21.8812C4.702 25.5649 15.413 34.2202 28.0003 34.2202C40.5875 34.2202 51.2986 25.5649 55.2871 21.8812C55.7681 21.4369 56.0049 20.833 55.999 20.2314V18.4244C56.0049 17.8227 55.7681 17.2189 55.2871 16.7745C51.2986 13.0909 40.5875 4.43555 28.0003 4.43555C15.413 4.43555 4.702 13.0909 0.713445 16.7745C0.232451 17.2189 -0.0043468 17.8227 0.00157313 18.4244V20.2314Z" fill="#BCBEC0"/>
<path d="M55.2868 16.7745C56.2377 17.6525 56.2377 19.1532 55.2868 20.0312C51.2983 23.7149 40.5869 32.3702 28 32.3702C15.4131 32.3702 4.70172 23.7149 0.713167 20.0312C-0.237722 19.1532 -0.237722 17.6525 0.713167 16.7745C4.70172 13.0909 15.4127 4.43555 28 4.43555C40.5873 4.43555 51.2983 13.0909 55.2868 16.7745Z" fill="#E6E7E8"/>
<path d="M55.2868 17.4372C56.2377 17.9581 56.2377 18.848 55.2868 19.3689C51.2983 21.5537 40.5869 26.6874 28 26.6874C15.4131 26.6874 4.70172 21.5537 0.713167 19.3689C-0.237722 18.848 -0.237722 17.9581 0.713167 17.4372C4.70172 15.2523 15.4127 10.1187 28 10.1187C40.5873 10.1187 51.2983 15.2523 55.2868 17.4372Z" fill="white"/>
<path d="M44.2572 14.4255C44.2572 13.9996 43.912 13.6548 43.4865 13.6548C43.061 13.6548 42.7158 14 42.7158 14.4255C42.7158 14.8514 43.061 15.1962 43.4865 15.1962C43.912 15.1962 44.2572 14.8514 44.2572 14.4255Z" fill="#D1D3D4"/>
<path d="M42.7461 11.3731C42.7461 11.7819 43.0772 12.1131 43.4861 12.1131C43.8946 12.1131 44.2261 11.7819 44.2261 11.3731V8.87819C43.7429 8.62105 43.2493 8.36945 42.7461 8.12451V11.3731Z" fill="#D1D3D4"/>
<path d="M53.2756 16.0444C52.8668 16.0444 52.5356 16.3759 52.5356 16.7844V22.401C53.0725 21.9681 53.5687 21.5533 54.0156 21.1667V16.7841C54.0156 16.376 53.6841 16.0444 53.2756 16.0444Z" fill="#D1D3D4"/>
<path d="M50.932 18.1359C50.932 17.7101 50.5868 17.3652 50.1613 17.3652C49.7358 17.3652 49.3906 17.7104 49.3906 18.1359C49.3906 18.5618 49.7358 18.9066 50.1613 18.9066C50.5868 18.9066 50.932 18.5614 50.932 18.1359Z" fill="#D1D3D4"/>
<path d="M49.4209 15.1963C49.4209 15.6048 49.7524 15.9363 50.1609 15.9363C50.5697 15.9363 50.9009 15.6048 50.9009 15.1963V13.1365C50.431 12.785 49.937 12.428 49.4209 12.0684V15.1963Z" fill="#D1D3D4"/>
<path d="M44.4343 23.999C44.0255 23.999 43.6943 24.3305 43.6943 24.739V28.2066C44.1986 27.9461 44.6918 27.6801 45.1743 27.4089V24.739C45.1743 24.3305 44.8428 23.999 44.4343 23.999Z" fill="#D1D3D4"/>
<path d="M49.2677 24.8445V21.075C49.2677 20.6661 48.9362 20.335 48.5277 20.335H40.3416C39.9327 20.335 39.6016 20.6661 39.6016 21.075C39.6016 21.4834 39.9327 21.8149 40.3416 21.8149H47.7877V25.8331C48.2987 25.5038 48.7923 25.1734 49.2677 24.8445Z" fill="#D1D3D4"/>
<path d="M39.6016 17.3869C39.6016 17.7954 39.9327 18.1269 40.3416 18.1269H46.6315C47.04 18.1269 47.3715 17.7954 47.3715 17.3869V12.4368C47.3715 12.0283 47.04 11.6968 46.6315 11.6968C46.2226 11.6968 45.8915 12.0283 45.8915 12.4368V16.647H40.3416C39.9327 16.647 39.6016 16.9785 39.6016 17.3869Z" fill="#D1D3D4"/>
<path d="M12.3062 24.739C12.3062 24.3305 11.9746 23.999 11.5662 23.999C11.1573 23.999 10.8262 24.3305 10.8262 24.739V27.4089C11.3083 27.6801 11.8015 27.9461 12.3062 28.2066V24.739Z" fill="#D1D3D4"/>
<path d="M13.2851 14.4255C13.2851 13.9996 12.9398 13.6548 12.5144 13.6548C12.0885 13.6548 11.7437 14 11.7437 14.4255C11.7437 14.8514 12.0889 15.1962 12.5144 15.1962C12.9398 15.1962 13.2851 14.8514 13.2851 14.4255Z" fill="#D1D3D4"/>
<path d="M5.09863 15.1963C5.09863 15.6048 5.43015 15.9363 5.83862 15.9363C6.24747 15.9363 6.57862 15.6048 6.57862 15.1963V12.0684C6.06284 12.4284 5.5689 12.7854 5.09863 13.1369V15.1963Z" fill="#D1D3D4"/>
<path d="M11.7744 11.3731C11.7744 11.7819 12.1056 12.1131 12.5144 12.1131C12.9229 12.1131 13.2544 11.7819 13.2544 11.3731V8.12451C12.7508 8.36945 12.2576 8.62105 11.7744 8.87819V11.3731Z" fill="#D1D3D4"/>
<path d="M15.6593 16.647H10.1094V12.4368C10.1094 12.0283 9.77786 11.6968 9.36939 11.6968C8.96054 11.6968 8.62939 12.0283 8.62939 12.4368V17.3869C8.62939 17.7954 8.96054 18.1269 9.36939 18.1269H15.6593C16.0678 18.1269 16.3993 17.7954 16.3993 17.3869C16.3993 16.9785 16.0682 16.647 15.6593 16.647Z" fill="#D1D3D4"/>
<path d="M5.83857 17.3647C5.4127 17.3647 5.06787 17.71 5.06787 18.1354C5.06787 18.5613 5.41307 18.9061 5.83857 18.9061C6.26444 18.9061 6.60927 18.5609 6.60927 18.1354C6.60964 17.71 6.26444 17.3647 5.83857 17.3647Z" fill="#D1D3D4"/>
<path d="M3.46485 22.401V16.7844C3.46485 16.3759 3.13333 16.0444 2.72486 16.0444C2.31638 16.0444 1.98486 16.3759 1.98486 16.7844V21.167C2.43145 21.5533 2.92761 21.9681 3.46485 22.401Z" fill="#D1D3D4"/>
<path d="M8.21289 21.8149H15.6591C16.0675 21.8149 16.3991 21.4834 16.3991 21.075C16.3991 20.6661 16.0675 20.335 15.6591 20.335H7.4729C7.06406 20.335 6.73291 20.6661 6.73291 21.075V24.8445C7.20798 25.1734 7.70193 25.5038 8.21289 25.8331V21.8149Z" fill="#D1D3D4"/>
<path d="M28.0001 6.28564C20.286 6.28564 14.0327 12.5389 14.0327 20.253C14.0327 24.5646 15.9874 28.4188 19.0576 30.9807C21.874 31.8372 24.8791 32.3704 28.0001 32.3704C31.121 32.3704 34.1261 31.8372 36.9425 30.9807C40.0127 28.4184 41.9674 24.5646 41.9674 20.253C41.9674 12.5389 35.7141 6.28564 28.0001 6.28564Z" fill="#BCBEC0"/>
<path d="M40.7876 24.0143C43.8871 16.9507 40.6734 8.71182 33.6098 5.61236C26.5461 2.51289 18.3073 5.72651 15.2078 12.7902C12.1083 19.8538 15.3219 28.0927 22.3856 31.1922C29.4493 34.2916 37.6881 31.078 40.7876 24.0143Z" fill="#1CAEE4"/>
<path d="M27.9999 29.6418C34.2068 29.6418 39.2385 24.6101 39.2385 18.4032C39.2385 12.1963 34.2068 7.16455 27.9999 7.16455C21.7929 7.16455 16.7612 12.1963 16.7612 18.4032C16.7612 24.6101 21.7929 29.6418 27.9999 29.6418Z" fill="#009ADD"/>
<path d="M28 27.7915C33.1852 27.7915 37.3886 23.588 37.3886 18.4028C37.3886 13.2176 33.1852 9.01416 28 9.01416C22.8148 9.01416 18.6113 13.2176 18.6113 18.4028C18.6113 23.588 22.8148 27.7915 28 27.7915Z" fill="#136DA0"/>
<path d="M27.9388 28.9478C27.7346 28.9478 27.5688 28.782 27.5688 28.5778V8.12439C27.5688 7.92015 27.7346 7.75439 27.9388 7.75439C28.1431 7.75439 28.3088 7.92015 28.3088 8.12439V28.5778C28.3085 28.782 28.1431 28.9478 27.9388 28.9478Z" fill="#009ADD"/>
<path d="M38.1652 18.7214H17.7118C17.5076 18.7214 17.3418 18.5557 17.3418 18.3514C17.3418 18.1472 17.5076 17.9814 17.7118 17.9814H38.1652C38.3698 17.9814 38.5352 18.1472 38.5352 18.3514C38.5352 18.5557 38.3694 18.7214 38.1652 18.7214Z" fill="#009ADD"/>
<path d="M20.707 25.9524C20.6123 25.9524 20.5176 25.9161 20.4454 25.844C20.3007 25.6993 20.3007 25.4655 20.4454 25.3208L34.9082 10.858C35.0529 10.7133 35.2867 10.7133 35.4314 10.858C35.576 11.0027 35.576 11.2365 35.4314 11.3812L20.9686 25.844C20.8964 25.9165 20.8017 25.9524 20.707 25.9524Z" fill="#009ADD"/>
<path d="M35.1698 25.9524C35.0751 25.9524 34.9803 25.9161 34.9082 25.844L20.4454 11.3812C20.3007 11.2365 20.3007 11.0023 20.4454 10.858C20.5901 10.7133 20.8239 10.7133 20.9686 10.858L35.4314 25.3208C35.576 25.4655 35.576 25.6993 35.4314 25.844C35.3592 25.9165 35.2645 25.9524 35.1698 25.9524Z" fill="#009ADD"/>
<path d="M32.0032 21.2028C32.936 18.9905 31.8988 16.4409 29.6864 15.5081C27.4741 14.5753 24.9245 15.6125 23.9917 17.8248C23.0589 20.0371 24.0962 22.5868 26.3085 23.5196C28.5208 24.4524 31.0704 23.4151 32.0032 21.2028Z" fill="#136DA0"/>
<path d="M32.0032 20.0944C32.936 17.8821 31.8988 15.3325 29.6864 14.3997C27.4741 13.4669 24.9245 14.5041 23.9917 16.7164C23.0589 18.9287 24.0962 21.4784 26.3085 22.4112C28.5208 23.344 31.0704 22.3067 32.0032 20.0944Z" fill="#1CAEE4"/>
<path d="M27.9998 19.2595C26.2201 19.2595 24.6924 18.1888 24.0197 16.6577C23.7852 17.1924 23.6523 17.7818 23.6523 18.4034C23.6523 20.8043 25.5989 22.7508 27.9998 22.7508C30.4007 22.7508 32.3472 20.8043 32.3472 18.4034C32.3472 17.7821 32.2148 17.1924 31.9798 16.6577C31.3072 18.1888 29.7795 19.2595 27.9998 19.2595Z" fill="#009ADD"/>
<path d="M29.6626 18.5906H28.8449C28.6488 18.5906 28.4901 18.4318 28.4901 18.2357V16.1534C28.4901 15.8189 28.0698 15.6702 27.8596 15.9303L25.9375 18.3064C25.7499 18.5384 25.9149 18.8843 26.2132 18.8843H27.0308C27.2266 18.8843 27.3857 19.0431 27.3857 19.2392V21.3215C27.3857 21.656 27.806 21.8047 28.0161 21.5446L29.9383 19.1685C30.1259 18.9361 29.9608 18.5906 29.6626 18.5906Z" fill="#136DA0"/>
<path d="M29.6626 17.989H28.8449C28.6488 17.989 28.4901 17.8303 28.4901 17.6342V15.5518C28.4901 15.2174 28.0698 15.0686 27.8596 15.3287L25.9375 17.7048C25.7499 17.9368 25.9149 18.2828 26.2132 18.2828H27.0308C27.2266 18.2828 27.3857 18.4415 27.3857 18.6376V20.7199C27.3857 21.0544 27.806 21.2028 28.0161 20.943L29.9383 18.5669C30.1259 18.3349 29.9608 17.989 29.6626 17.989Z" fill="#FEDE3A"/>
<path d="M27.3857 17.7471C27.3857 17.5514 27.2269 17.3923 27.0308 17.3923H26.2132C26.2058 17.3923 26.2013 17.3871 26.1943 17.3867L25.9375 17.7042C25.7499 17.9362 25.9149 18.2821 26.2132 18.2821H27.0308C27.2266 18.2821 27.3857 18.4408 27.3857 18.6369V17.7471Z" fill="#F7CB15"/>
<path d="M29.6816 17.9941L28.0162 20.0524C27.8061 20.3125 27.3857 20.1638 27.3857 19.8293V20.7192C27.3857 21.0536 27.8061 21.202 28.0162 20.9423L29.9383 18.5662C30.1215 18.3401 29.9661 18.0101 29.6816 17.9941Z" fill="#F7CB15"/>
</svg>
