<svg width="51" height="45" viewBox="0 0 51 45" fill="none" xmlns="http://www.w3.org/2000/svg">
<g clip-path="url(#clip0_94_798)">
<path d="M46.8927 3.99158C46.0467 3.64824 3.80337 3.47656 3.80337 3.47656C3.80337 3.47656 3.17428 24.7784 2.90674 36.5309C4.04015 38.8814 5.6905 40.9515 7.73702 42.5896C8.75047 43.4191 9.85107 44.1385 11.0199 44.7355C23.4861 45.1289 45.7791 45.086 46.3938 44.6068C47.2543 43.9487 47.7387 4.34209 46.8927 3.99158Z" fill="#FBBC05"/>
<path d="M11.678 0.00710584C11.3743 0.193086 0 12.4177 0 12.4177C0.955942 13.4875 1.98 14.4957 3.06592 15.4363C3.5504 15.6652 14.9898 3.37621 14.9826 3.14016C14.9753 2.90411 11.9672 -0.178874 11.678 0.00710584Z" fill="#B2B4B3"/>
<path d="M39.6331 0.343588C39.9224 0.536721 51.0002 13.026 51.0002 13.026C50.018 14.0729 48.9699 15.0572 47.862 15.9731C47.3703 16.1948 36.2418 3.63401 36.249 3.39795C36.2563 3.1619 39.3439 0.121842 39.6331 0.343588Z" fill="#B2B4B3"/>
<path d="M2.90674 36.5307C4.07518 36.3054 5.20342 35.9101 6.25468 35.3576C7.78764 34.4921 8.22874 33.2832 8.61198 33.2832C8.99522 33.2832 8.61197 35.8869 9.50861 39.4205C10.4053 42.9542 11.0199 44.7353 11.0199 44.7353C9.03345 43.8777 7.27583 42.5749 5.88589 40.9298C3.36229 38.0328 2.90674 36.5307 2.90674 36.5307Z" fill="#E7AC00"/>
<path d="M39.0689 13.6554C36.0825 13.5624 17.1012 13.2977 14.6571 13.1189C12.2131 12.9401 10.051 12.9401 10.2318 13.6554C10.2318 13.6554 17.7375 13.92 26.5014 14.013C35.2654 14.106 41.9612 14.4565 42.1348 14.1918C42.3083 13.9272 42.048 13.7126 39.0689 13.6554Z" fill="white"/>
<path d="M38.7941 17.2315C35.815 17.1385 16.8264 16.8739 14.3896 16.6951C11.9528 16.5162 9.78347 16.5162 9.95702 17.2315C9.95702 17.2315 17.4628 17.4962 26.2267 17.5892C34.9906 17.6822 41.6865 18.0327 41.8673 17.768C42.048 17.5033 41.7733 17.2888 38.7941 17.2315Z" fill="white"/>
<path d="M38.3457 21.7022C35.3593 21.6092 16.378 21.3446 13.934 21.1658C11.4899 20.9869 9.32786 20.9869 9.50863 21.7022C9.50863 21.7022 17.0144 21.9669 25.7783 22.0599C34.5422 22.1529 41.2381 22.5034 41.4116 22.2387C41.5852 21.9741 41.3249 21.7881 38.3457 21.7022Z" fill="white"/>
</g>
<defs>
<clipPath id="clip0_94_798">
<rect width="51" height="45" fill="white"/>
</clipPath>
</defs>
</svg>
