<svg width="40" height="40" viewBox="0 0 40 40" fill="none" xmlns="http://www.w3.org/2000/svg">
<g clip-path="url(#clip0_388_4647)">
<path d="M5.625 31.25V12.5H34.375V31.25C34.375 32.9756 32.9756 34.375 31.25 34.375H8.75C7.02438 34.375 5.625 32.9756 5.625 31.25Z" fill="url(#paint0_linear_388_4647)"/>
<path d="M34.375 9.25V14.375H5.625V9.25C5.625 7.59188 6.97875 6.25 8.65125 6.25H31.3488C33.0213 6.25 34.375 7.59188 34.375 9.25Z" fill="url(#paint1_linear_388_4647)"/>
<path d="M15.4094 6.25H11.465C10.58 6.87187 10 7.89875 10 9.0625C10 10.96 11.54 12.5 13.4375 12.5C15.335 12.5 16.875 10.96 16.875 9.0625C16.875 7.89875 16.295 6.87187 15.4094 6.25Z" fill="url(#paint2_linear_388_4647)"/>
<path d="M13.4375 10.625C12.5781 10.625 11.875 9.92188 11.875 9.0625V5.3125C11.875 4.45312 12.5781 3.75 13.4375 3.75C14.2969 3.75 15 4.45312 15 5.3125V9.0625C15 9.92188 14.2969 10.625 13.4375 10.625Z" fill="url(#paint3_linear_388_4647)"/>
<path d="M28.5344 6.25H24.59C23.705 6.87187 23.125 7.89875 23.125 9.0625C23.125 10.96 24.665 12.5 26.5625 12.5C28.46 12.5 30 10.96 30 9.0625C30 7.89875 29.42 6.87187 28.5344 6.25Z" fill="url(#paint4_linear_388_4647)"/>
<path d="M26.5625 10.625C25.7031 10.625 25 9.92188 25 9.0625V5.3125C25 4.45312 25.7031 3.75 26.5625 3.75C27.4219 3.75 28.125 4.45312 28.125 5.3125V9.0625C28.125 9.92188 27.4219 10.625 26.5625 10.625Z" fill="url(#paint5_linear_388_4647)"/>
<path d="M24.375 25.315C24.375 26.1781 25.075 26.8769 25.9375 26.8762L26.8731 26.8756C27.9094 26.8744 28.75 27.7144 28.75 28.75C28.75 29.7856 27.9106 30.625 26.875 30.625H24.375C23.3394 30.625 22.5 31.4644 22.5 32.5C22.5 33.5356 23.3394 34.375 24.375 34.375H31.25C32.9756 34.375 34.375 32.9756 34.375 31.25V23.75L25.9356 23.7538C25.0738 23.7538 24.375 24.4525 24.375 25.315Z" fill="#FFB86A"/>
<path d="M5.625 21.25H11.1831C11.8056 21.25 12.3831 20.8244 12.4831 20.21C12.61 19.4269 12.0094 18.75 11.25 18.75H10.3125C9.795 18.75 9.375 18.33 9.375 17.8125C9.375 17.295 9.795 16.875 10.3125 16.875H14.9331C15.5556 16.875 16.1331 16.4494 16.2331 15.835C16.36 15.0519 15.7594 14.375 15 14.375H5.625V21.25Z" fill="url(#paint6_linear_388_4647)"/>
<path d="M28.75 17.5C28.2527 17.5 27.7758 17.6975 27.4242 18.0492C27.0725 18.4008 26.875 18.8777 26.875 19.375C26.875 19.8723 27.0725 20.3492 27.4242 20.7008C27.7758 21.0525 28.2527 21.25 28.75 21.25C29.2473 21.25 29.7242 21.0525 30.0758 20.7008C30.4275 20.3492 30.625 19.8723 30.625 19.375C30.625 18.8777 30.4275 18.4008 30.0758 18.0492C29.7242 17.6975 29.2473 17.5 28.75 17.5Z" fill="#FFB977"/>
<path d="M15 23.125H12.5C11.8094 23.125 11.25 22.5656 11.25 21.875V19.375C11.25 18.6844 11.8094 18.125 12.5 18.125H15C15.6906 18.125 16.25 18.6844 16.25 19.375V21.875C16.25 22.5656 15.6906 23.125 15 23.125ZM22.5 21.875V19.375C22.5 18.6844 21.9406 18.125 21.25 18.125H18.75C18.0594 18.125 17.5 18.6844 17.5 19.375V21.875C17.5 22.5656 18.0594 23.125 18.75 23.125H21.25C21.9406 23.125 22.5 22.5656 22.5 21.875ZM28.75 21.875V19.375C28.75 18.6844 28.1906 18.125 27.5 18.125H25C24.3094 18.125 23.75 18.6844 23.75 19.375V21.875C23.75 22.5656 24.3094 23.125 25 23.125H27.5C28.1906 23.125 28.75 22.5656 28.75 21.875ZM16.25 28.125V25.625C16.25 24.9344 15.6906 24.375 15 24.375H12.5C11.8094 24.375 11.25 24.9344 11.25 25.625V28.125C11.25 28.8156 11.8094 29.375 12.5 29.375H15C15.6906 29.375 16.25 28.8156 16.25 28.125ZM22.5 28.125V25.625C22.5 24.9344 21.9406 24.375 21.25 24.375H18.75C18.0594 24.375 17.5 24.9344 17.5 25.625V28.125C17.5 28.8156 18.0594 29.375 18.75 29.375H21.25C21.9406 29.375 22.5 28.8156 22.5 28.125ZM28.75 28.125V25.625C28.75 24.9344 28.1906 24.375 27.5 24.375H25C24.3094 24.375 23.75 24.9344 23.75 25.625V28.125C23.75 28.8156 24.3094 29.375 25 29.375H27.5C28.1906 29.375 28.75 28.8156 28.75 28.125Z" fill="url(#paint7_linear_388_4647)"/>
<path d="M32.5 26.25C30.8424 26.25 29.2527 26.9085 28.0806 28.0806C26.9085 29.2527 26.25 30.8424 26.25 32.5C26.25 34.1576 26.9085 35.7473 28.0806 36.9194C29.2527 38.0915 30.8424 38.75 32.5 38.75C34.1576 38.75 35.7473 38.0915 36.9194 36.9194C38.0915 35.7473 38.75 34.1576 38.75 32.5C38.75 30.8424 38.0915 29.2527 36.9194 28.0806C35.7473 26.9085 34.1576 26.25 32.5 26.25Z" fill="white"/>
<path d="M32.5 25C28.3581 25 25 28.3581 25 32.5C25 36.6419 28.3581 40 32.5 40C36.6419 40 40 36.6419 40 32.5C40 28.3581 36.6419 25 32.5 25ZM32.5 37.5C29.7387 37.5 27.5 35.2613 27.5 32.5C27.5 29.7387 29.7387 27.5 32.5 27.5C35.2613 27.5 37.5 29.7387 37.5 32.5C37.5 35.2613 35.2613 37.5 32.5 37.5Z" fill="url(#paint8_linear_388_4647)"/>
<path d="M35.4419 34.5581L33.7037 32.82C33.7306 32.7169 33.75 32.6112 33.75 32.5C33.75 32.0387 33.4969 31.64 33.125 31.4231V29.375C33.125 29.0294 32.8456 28.75 32.5 28.75C32.1544 28.75 31.875 29.0294 31.875 29.375V31.4231C31.5031 31.6394 31.25 32.0381 31.25 32.5C31.25 33.1906 31.8094 33.75 32.5 33.75C32.6113 33.75 32.7169 33.7306 32.82 33.7037L34.5581 35.4419C34.68 35.5638 34.84 35.625 35 35.625C35.16 35.625 35.32 35.5638 35.4419 35.4419C35.6863 35.1975 35.6863 34.8025 35.4419 34.5581Z" fill="url(#paint9_linear_388_4647)"/>
</g>
<defs>
<linearGradient id="paint0_linear_388_4647" x1="20" y1="34.375" x2="20" y2="12.5" gradientUnits="userSpaceOnUse">
<stop stop-color="#FFC662"/>
<stop offset="0.004" stop-color="#FFC662"/>
<stop offset="0.609" stop-color="#FFC582"/>
<stop offset="1" stop-color="#FFC491"/>
</linearGradient>
<linearGradient id="paint1_linear_388_4647" x1="20" y1="14.375" x2="20" y2="6.25" gradientUnits="userSpaceOnUse">
<stop stop-color="#FF634D"/>
<stop offset="0.208" stop-color="#FD6464"/>
<stop offset="0.522" stop-color="#FC6582"/>
<stop offset="0.793" stop-color="#FA6694"/>
<stop offset="0.989" stop-color="#FA669A"/>
<stop offset="1" stop-color="#FA669A"/>
</linearGradient>
<linearGradient id="paint2_linear_388_4647" x1="13.4375" y1="12.5" x2="13.4375" y2="6.25" gradientUnits="userSpaceOnUse">
<stop stop-color="#FF5840"/>
<stop offset="0.007" stop-color="#FF5840"/>
<stop offset="0.989" stop-color="#FA528C"/>
<stop offset="1" stop-color="#FA528C"/>
</linearGradient>
<linearGradient id="paint3_linear_388_4647" x1="13.4375" y1="3.75" x2="13.4375" y2="10.625" gradientUnits="userSpaceOnUse">
<stop stop-color="#A4A4A4"/>
<stop offset="0.63" stop-color="#7F7F7F"/>
<stop offset="1" stop-color="#6F6F6F"/>
</linearGradient>
<linearGradient id="paint4_linear_388_4647" x1="26.5625" y1="12.5" x2="26.5625" y2="6.25" gradientUnits="userSpaceOnUse">
<stop stop-color="#FF5840"/>
<stop offset="0.007" stop-color="#FF5840"/>
<stop offset="0.989" stop-color="#FA528C"/>
<stop offset="1" stop-color="#FA528C"/>
</linearGradient>
<linearGradient id="paint5_linear_388_4647" x1="26.5625" y1="3.75" x2="26.5625" y2="10.625" gradientUnits="userSpaceOnUse">
<stop stop-color="#A4A4A4"/>
<stop offset="0.63" stop-color="#7F7F7F"/>
<stop offset="1" stop-color="#6F6F6F"/>
</linearGradient>
<linearGradient id="paint6_linear_388_4647" x1="10.9375" y1="33.8281" x2="10.9375" y2="13.6694" gradientUnits="userSpaceOnUse">
<stop stop-color="#FFCE76"/>
<stop offset="0.004" stop-color="#FFCE76"/>
<stop offset="0.605" stop-color="#FFCD92"/>
<stop offset="1" stop-color="#FFCCA0"/>
</linearGradient>
<linearGradient id="paint7_linear_388_4647" x1="20" y1="29.375" x2="20" y2="18.125" gradientUnits="userSpaceOnUse">
<stop stop-color="#FFE79F"/>
<stop offset="0.119" stop-color="#FFE9A6"/>
<stop offset="1" stop-color="#FFF5D5"/>
</linearGradient>
<linearGradient id="paint8_linear_388_4647" x1="32.5" y1="40" x2="32.5" y2="25" gradientUnits="userSpaceOnUse">
<stop stop-color="#155CDE"/>
<stop offset="0.625" stop-color="#2289E7"/>
<stop offset="1" stop-color="#289FEC"/>
</linearGradient>
<linearGradient id="paint9_linear_388_4647" x1="33.4375" y1="28.75" x2="33.4375" y2="35.625" gradientUnits="userSpaceOnUse">
<stop stop-color="#919191"/>
<stop offset="1" stop-color="#6F6F6F"/>
</linearGradient>
<clipPath id="clip0_388_4647">
<rect width="40" height="40" fill="white"/>
</clipPath>
</defs>
</svg>
