<svg width="25" height="20" viewBox="0 0 25 20" fill="none" xmlns="http://www.w3.org/2000/svg">
<path fill-rule="evenodd" clip-rule="evenodd" d="M7.72381 7.14842C7.72381 5.88505 8.22568 4.67343 9.11901 3.78009C10.0124 2.88675 11.224 2.38488 12.4873 2.38488C13.7507 2.38488 14.9623 2.88675 15.8557 3.78009C16.749 4.67343 17.2509 5.88505 17.2509 7.14842V8.3393H18.4418C18.9891 8.3393 19.5311 8.44711 20.0368 8.65658C20.5425 8.86604 21.002 9.17306 21.389 9.5601C21.7761 9.94715 22.0831 10.4066 22.2926 10.9123C22.502 11.418 22.6098 11.96 22.6098 12.5074C22.6098 13.0547 22.502 13.5968 22.2926 14.1024C22.0831 14.6081 21.7761 15.0676 21.389 15.4547C21.002 15.8417 20.5425 16.1487 20.0368 16.3582C19.5311 16.5677 18.9891 16.6755 18.4418 16.6755H18.3227C18.0068 16.6755 17.7039 16.8009 17.4806 17.0243C17.2573 17.2476 17.1318 17.5505 17.1318 17.8664C17.1318 18.1822 17.2573 18.4851 17.4806 18.7084C17.7039 18.9318 18.0068 19.0572 18.3227 19.0572H18.4418C20.0841 19.0593 21.6674 18.4443 22.8777 17.3341C24.088 16.2239 24.837 14.6996 24.9764 13.0631C25.1157 11.4266 24.6352 9.79756 23.63 8.49871C22.6248 7.19985 21.1684 6.32603 19.5493 6.05042C19.2877 4.36519 18.4321 2.82904 17.137 1.71946C15.8419 0.609872 14.1928 0 12.4873 0C10.7819 0 9.13274 0.609872 7.83765 1.71946C6.54256 2.82904 5.68697 4.36519 5.42541 6.05042C3.81162 6.33216 2.36191 7.20819 1.36203 8.50585C0.362155 9.80351 -0.11535 11.4287 0.0236376 13.0609C0.162626 14.6932 0.908024 16.2142 2.11291 17.3242C3.31779 18.4341 4.89474 19.0524 6.53293 19.0572H6.65201C6.96786 19.0572 7.27076 18.9318 7.4941 18.7084C7.71743 18.4851 7.8429 18.1822 7.8429 17.8664C7.8429 17.5505 7.71743 17.2476 7.4941 17.0243C7.27076 16.8009 6.96786 16.6755 6.65201 16.6755H6.53293C5.98557 16.6755 5.44356 16.5677 4.93787 16.3582C4.43217 16.1487 3.97268 15.8417 3.58564 15.4547C3.1986 15.0676 2.89158 14.6081 2.68211 14.1024C2.47265 13.5968 2.36484 13.0547 2.36484 12.5074C2.36484 11.96 2.47265 11.418 2.68211 10.9123C2.89158 10.4066 3.1986 9.94715 3.58564 9.5601C3.97268 9.17306 4.43217 8.86604 4.93787 8.65658C5.44356 8.44711 5.98557 8.3393 6.53293 8.3393H7.72381V7.14842ZM13.6782 8.3393C13.6782 8.02346 13.5528 7.72055 13.3294 7.49722C13.1061 7.27388 12.8032 7.14842 12.4873 7.14842C12.1715 7.14842 11.8686 7.27388 11.6453 7.49722C11.4219 7.72055 11.2965 8.02346 11.2965 8.3393V14.9916L9.75665 13.4518C9.53204 13.2348 9.23122 13.1148 8.91898 13.1175C8.60673 13.1202 8.30804 13.2455 8.08724 13.4663C7.86645 13.6871 7.7412 13.9858 7.73849 14.298C7.73577 14.6102 7.85581 14.9111 8.07274 15.1357L11.6454 18.7083C11.8687 18.9316 12.1716 19.057 12.4873 19.057C12.8031 19.057 13.106 18.9316 13.3293 18.7083L16.9019 15.1357C17.1189 14.9111 17.2389 14.6102 17.2362 14.298C17.2335 13.9858 17.1082 13.6871 16.8874 13.4663C16.6666 13.2455 16.3679 13.1202 16.0557 13.1175C15.7435 13.1148 15.4426 13.2348 15.218 13.4518L13.6782 14.9916V8.3393Z" fill="#4C4DFF"/>
</svg>