<svg width="29" height="16" viewBox="0 0 29 16" fill="none" xmlns="http://www.w3.org/2000/svg">
<path d="M19 13C20.1046 13 21 12.1046 21 11C21 9.89543 20.1046 9 19 9C17.8954 9 17 9.89543 17 11C17 12.1046 17.8954 13 19 13Z" fill="#4C4DFF"/>
<path d="M25.0069 0.000217103C24.4642 1.4433e-05 23.9316 0.147016 23.4659 0.425564C23.0002 0.704112 22.6187 1.10377 22.3622 1.58198C22.1056 2.06018 21.9836 2.59902 22.0091 3.1411C22.0345 3.68318 22.2066 4.20819 22.5069 4.66022L19.8969 8.15022C19.3198 7.96046 18.698 7.95476 18.1175 8.13391C17.5371 8.31307 17.0266 8.66822 16.6569 9.15022L13.0069 7.94022C13.0106 7.50646 12.9201 7.07707 12.7418 6.68164C12.5635 6.28621 12.3016 5.93415 11.9741 5.64973C11.6466 5.36531 11.2613 5.15529 10.8448 5.03415C10.4283 4.91302 9.99043 4.88365 9.56147 4.94806C9.13251 5.01248 8.72262 5.16915 8.36006 5.40728C7.99749 5.64541 7.69088 5.95933 7.46136 6.3274C7.23184 6.69548 7.08487 7.10894 7.03058 7.5393C6.97628 7.96966 7.01596 8.40667 7.14687 8.82022L4.73688 10.5502C4.15967 10.1404 3.45611 9.94783 2.75064 10.0067C2.04517 10.0655 1.38323 10.3719 0.881898 10.8718C0.380564 11.3716 0.0721338 12.0326 0.0111549 12.7379C-0.049824 13.4432 0.140577 14.1473 0.548685 14.7258C0.956792 15.3042 1.55631 15.7197 2.24122 15.8987C2.92612 16.0778 3.65228 16.0089 4.29127 15.7042C4.93026 15.3995 5.44091 14.8786 5.73291 14.2337C6.02491 13.5888 6.07945 12.8614 5.88688 12.1802L8.29688 10.4502C8.92517 10.8866 9.69643 11.0665 10.453 10.9531C11.2095 10.8397 11.8941 10.4416 12.3669 9.84022L16.0069 11.0602C16.0142 11.5269 16.1304 11.9855 16.3461 12.3994C16.5618 12.8133 16.8711 13.1712 17.2495 13.4446C17.6278 13.718 18.0647 13.8993 18.5254 13.9741C18.9862 14.049 19.458 14.0153 19.9034 13.8757C20.3488 13.7362 20.7555 13.4946 21.0912 13.1703C21.4268 12.8459 21.6822 12.4477 21.8369 12.0074C21.9916 11.567 22.0414 11.0966 21.9824 10.6336C21.9234 10.1705 21.7571 9.72769 21.4969 9.34022L24.1069 5.85022C24.5207 5.98613 24.9592 6.0303 25.3918 5.97965C25.8244 5.929 26.2408 5.78476 26.6121 5.55693C26.9833 5.32911 27.3005 5.02317 27.5416 4.66039C27.7827 4.29761 27.9418 3.88669 28.0081 3.45617C28.0743 3.02566 28.046 2.58589 27.9251 2.16742C27.8042 1.74895 27.5937 1.36182 27.3081 1.03295C27.0225 0.70407 26.6687 0.44133 26.2713 0.262987C25.8739 0.0846445 25.4424 -0.00502276 25.0069 0.000217103ZM3.00688 14.0002C2.80909 14.0002 2.61575 13.9416 2.45131 13.8317C2.28686 13.7218 2.15868 13.5656 2.083 13.3829C2.00731 13.2002 1.98751 12.9991 2.02609 12.8051C2.06468 12.6111 2.15992 12.433 2.29977 12.2931C2.43962 12.1533 2.6178 12.058 2.81179 12.0194C3.00577 11.9808 3.20683 12.0007 3.38956 12.0763C3.57229 12.152 3.72846 12.2802 3.83835 12.4446C3.94823 12.6091 4.00688 12.8024 4.00688 13.0002C4.00688 13.2654 3.90152 13.5198 3.71398 13.7073C3.52645 13.8949 3.27209 14.0002 3.00688 14.0002ZM10.0069 9.00022C9.80909 9.00022 9.61575 8.94157 9.45131 8.83169C9.28686 8.72181 9.15868 8.56563 9.083 8.3829C9.00731 8.20018 8.9875 7.99911 9.02609 7.80513C9.06468 7.61115 9.15992 7.43296 9.29977 7.29311C9.43962 7.15326 9.6178 7.05802 9.81178 7.01943C10.0058 6.98085 10.2068 7.00065 10.3896 7.07634C10.5723 7.15202 10.7285 7.2802 10.8383 7.44465C10.9482 7.6091 11.0069 7.80244 11.0069 8.00022C11.0069 8.26543 10.9015 8.51979 10.714 8.70732C10.5264 8.89486 10.2721 9.00022 10.0069 9.00022ZM19.0069 12.0002C18.8091 12.0002 18.6158 11.9416 18.4513 11.8317C18.2869 11.7218 18.1587 11.5656 18.083 11.3829C18.0073 11.2002 17.9875 10.9991 18.0261 10.8051C18.0647 10.6111 18.1599 10.433 18.2998 10.2931C18.4396 10.1533 18.6178 10.058 18.8118 10.0194C19.0058 9.98085 19.2068 10.0007 19.3896 10.0763C19.5723 10.152 19.7285 10.2802 19.8383 10.4446C19.9482 10.6091 20.0069 10.8024 20.0069 11.0002C20.0069 11.2654 19.9015 11.5198 19.714 11.7073C19.5264 11.8949 19.2721 12.0002 19.0069 12.0002ZM25.0069 4.00022C24.8091 4.00022 24.6158 3.94157 24.4513 3.83169C24.2869 3.72181 24.1587 3.56563 24.083 3.3829C24.0073 3.20017 23.9875 2.99911 24.0261 2.80513C24.0647 2.61115 24.1599 2.43296 24.2998 2.29311C24.4396 2.15326 24.6178 2.05802 24.8118 2.01943C25.0058 1.98085 25.2068 2.00065 25.3896 2.07634C25.5723 2.15203 25.7285 2.2802 25.8383 2.44465C25.9482 2.6091 26.0069 2.80244 26.0069 3.00022C26.0069 3.26543 25.9015 3.51979 25.714 3.70732C25.5264 3.89486 25.2721 4.00022 25.0069 4.00022Z" fill="#424242"/>
</svg>