<svg width="27" height="24" viewBox="0 0 27 24" fill="none" xmlns="http://www.w3.org/2000/svg">
<g clip-path="url(#clip0_388_4620)">
<path d="M22.68 14.3831L21.9375 12.6956L20.5369 13.725C21.0426 11.805 20.8552 9.76823 20.0074 7.97288C19.1596 6.17753 17.7058 4.73866 15.9019 3.90938L15.6319 4.91063L13.5 2.00813L16.7963 0.5625C16.4869 1.73813 16.515 1.62563 16.4925 1.6875C18.8915 2.68909 20.8431 4.53075 21.9821 6.86766C23.121 9.20456 23.3692 11.8765 22.68 14.3831Z" fill="#BFBFBF"/>
<path d="M12.375 20.0078H5.91753L5.62503 19.8559C4.02201 18.5485 2.83284 16.804 2.20181 14.834C1.57078 12.8641 1.525 10.7533 2.07003 8.75781L2.81253 10.4453L4.21315 9.41595C3.88326 10.6651 3.84465 11.9733 4.10028 13.2398C4.35591 14.5062 4.89896 15.697 5.68757 16.7204C6.47617 17.7438 7.48925 18.5724 8.64872 19.1424C9.80818 19.7123 11.083 20.0084 12.375 20.0078Z" fill="#BFBFBF"/>
<path d="M26.4375 21.1328L23.625 18.8828V20.0078H18.9281C17.0573 21.4705 14.7497 22.2628 12.375 22.2578H23.625V23.3828L26.4375 21.1328Z" fill="#BFBFBF"/>
<path d="M26.7865 20.6936L23.974 18.4436C23.8913 18.3783 23.7918 18.3375 23.687 18.3259C23.5822 18.3143 23.4762 18.3324 23.3812 18.3782C23.2862 18.4239 23.206 18.4954 23.1497 18.5846C23.0933 18.6737 23.0632 18.7769 23.0627 18.8824V19.4449H20.4134C21.2938 18.5404 22.0163 17.4946 22.5509 16.3511C22.8201 16.4491 23.0993 16.517 23.3834 16.5536C23.4765 16.553 23.5679 16.5293 23.6496 16.4847C23.7313 16.44 23.8006 16.3758 23.8513 16.2977C23.9021 16.2196 23.9326 16.1302 23.9403 16.0375C23.948 15.9447 23.9325 15.8515 23.8952 15.7661L23.2709 14.3374C23.919 11.8063 23.6627 9.12839 22.5463 6.7662C21.4299 4.40401 19.5236 2.50595 17.1565 1.3999L17.3421 0.713645C17.3691 0.611292 17.3666 0.503408 17.335 0.402388C17.3034 0.301369 17.244 0.2113 17.1635 0.142562C17.083 0.0738231 16.9848 0.0291983 16.88 0.0137986C16.7753 -0.00160122 16.6684 0.0128554 16.5715 0.0555123L15.1484 0.679896C12.6173 0.0328956 9.93984 0.28967 7.57791 1.40594C5.21599 2.52221 3.31778 4.42794 2.21087 6.79427L1.52462 6.60863C1.42227 6.58166 1.31438 6.58412 1.21336 6.61572C1.11234 6.64732 1.02229 6.70679 0.953553 6.78728C0.884815 6.86777 0.84019 6.96601 0.82479 7.07073C0.80939 7.17545 0.823847 7.28239 0.866504 7.37926L1.49087 8.80801C1.00915 10.6765 1.01858 12.6377 1.51827 14.5014C2.01795 16.3651 2.99092 18.068 4.34275 19.4449H0.562749C0.466863 19.4452 0.372641 19.47 0.289035 19.5169C0.205428 19.5639 0.135209 19.6314 0.0850497 19.7131C0.0348902 19.7948 0.00645934 19.888 0.00244626 19.9838C-0.00156682 20.0796 0.0189664 20.1749 0.0621158 20.2605L0.495252 21.1324L0.0621158 22.0043C0.0189664 22.0899 -0.00156682 22.1851 0.00244626 22.2809C0.00645934 22.3767 0.0348902 22.4699 0.0850497 22.5517C0.135209 22.6334 0.205428 22.7009 0.289035 22.7479C0.372641 22.7948 0.466863 22.8196 0.562749 22.8199H23.0627V23.3824C23.0627 23.5316 23.122 23.6746 23.2275 23.7801C23.333 23.8856 23.4761 23.9449 23.6252 23.9449C23.9009 23.9449 23.7715 23.9843 26.7865 21.5711C26.8522 21.5184 26.9052 21.4516 26.9417 21.3757C26.9781 21.2998 26.997 21.2166 26.997 21.1324C26.997 21.0482 26.9781 20.965 26.9417 20.8891C26.9052 20.8131 26.8522 20.7463 26.7865 20.6936ZM12.3752 21.6949H7.099L7.25087 21.3855C7.40837 21.0761 7.25087 20.823 7.099 20.5699H12.3752C14.0949 20.566 15.7776 20.0711 17.2255 19.1433C18.6734 18.2156 19.8262 16.8937 20.5484 15.333C20.5484 15.333 20.5484 15.2993 20.5484 15.288C20.5484 15.2768 20.5484 15.2599 20.5484 15.243C20.5484 15.2261 20.5484 15.0968 20.5484 15.0855C20.5464 14.9606 20.5028 14.8398 20.4246 14.7424C20.4246 14.7424 20.4246 14.7424 20.4246 14.7143C20.3812 14.6665 20.3298 14.6265 20.2727 14.5961L21.6846 13.5668C22.1909 14.7199 21.8646 13.9943 22.3765 15.1474H22.1909C22.0496 15.1613 21.918 15.2251 21.8196 15.3274C21.7787 15.3781 21.743 15.4328 21.7128 15.4905C20.9405 17.3294 19.6423 18.8992 17.9811 20.003C16.3199 21.1068 14.3697 21.6954 12.3752 21.6949ZM4.2865 21.6949C4.59587 21.0705 4.55087 21.1043 4.2865 20.5699H5.839L6.12025 21.1324L5.839 21.6949H4.2865ZM4.714 9.74739L6.04712 8.76863C6.13391 8.70636 6.20118 8.62067 6.24106 8.52158C6.28093 8.42248 6.29177 8.31409 6.2723 8.20907C6.25283 8.10404 6.20385 8.00672 6.1311 7.9285C6.05835 7.85029 5.96484 7.7944 5.8615 7.76738L5.53525 7.68301C6.37655 6.20151 7.67562 5.03279 9.23751 4.35225C10.7994 3.67171 12.5399 3.51606 14.1978 3.90864L15.1765 5.24176C15.2388 5.32855 15.3245 5.39581 15.4236 5.43569C15.5226 5.47556 15.6311 5.4864 15.7361 5.46693C15.8411 5.44746 15.9384 5.39849 16.0166 5.32574C16.0948 5.25299 16.1507 5.15949 16.1777 5.05615L16.2621 4.72989C17.7436 5.57119 18.9123 6.87026 19.5929 8.43216C20.2734 9.99405 20.4291 11.7345 20.0365 13.3924L18.7034 14.3711C18.6166 14.4334 18.5493 14.5191 18.5094 14.6182C18.4696 14.7173 18.4587 14.8257 18.4782 14.9307C18.4977 15.0357 18.5466 15.1331 18.6194 15.2113C18.6921 15.2895 18.7857 15.3454 18.889 15.3724L19.2153 15.4568C18.5288 16.6663 17.5343 17.6725 16.3329 18.373C15.1315 19.0735 13.766 19.4433 12.3752 19.4449C11.1861 19.4449 10.0124 19.1756 8.94218 18.6572C7.87198 18.1388 6.93308 17.3848 6.19591 16.4517C5.45875 15.5186 4.94247 14.4307 4.68581 13.2695C4.42916 12.1084 4.4388 10.9043 4.714 9.74739ZM16.1215 2.12551C16.1717 2.16265 16.2244 2.19649 16.279 2.22677C18.2659 3.05538 19.9371 4.49573 21.0497 6.3387C22.1624 8.18167 22.6587 10.3313 22.4665 12.4755C22.4336 12.3974 22.3834 12.3277 22.3197 12.2717C22.2561 12.2157 22.1806 12.1748 22.0989 12.1521C22.0172 12.1294 21.9315 12.1254 21.848 12.1405C21.7646 12.1556 21.6857 12.1894 21.6171 12.2393L21.3415 12.4418C21.5223 10.5817 21.1196 8.71142 20.1892 7.09059C19.2589 5.46976 17.847 4.17876 16.1496 3.39676H16.1046H16.0596H15.9021C15.7746 3.39909 15.6516 3.44472 15.5534 3.52614C15.5056 3.56961 15.4656 3.62098 15.4353 3.67801L14.4059 2.26613L15.9865 1.57427C15.9609 1.6701 15.9599 1.77082 15.9835 1.86716C16.007 1.9635 16.0545 2.05235 16.1215 2.12551ZM13.309 1.48988C13.2309 1.52282 13.1612 1.573 13.1052 1.63665C13.0492 1.7003 13.0083 1.77579 12.9856 1.85748C12.9629 1.93916 12.9589 2.02491 12.974 2.10834C12.9891 2.19177 13.0229 2.27072 13.0728 2.33926L13.2753 2.61488C11.4152 2.43406 9.5449 2.83679 7.92408 3.76716C6.30325 4.69752 5.01224 6.10937 4.23024 7.80676C4.23024 7.80676 4.23024 7.84052 4.23024 7.85177C4.23024 7.86302 4.23024 7.87989 4.23024 7.89676C4.23024 7.91364 4.23024 7.94738 4.23024 7.9755C4.21185 8.04366 4.21185 8.11549 4.23024 8.18364C4.24197 8.26338 4.27724 8.33779 4.33151 8.39738C4.33151 8.39738 4.33151 8.39739 4.33151 8.42552C4.37497 8.47332 4.42634 8.51328 4.48337 8.54364L3.07149 9.57302C2.91962 9.21864 2.50901 8.34677 2.37963 7.9924C2.43588 7.9924 2.41901 7.9924 2.46963 7.9924C2.4939 7.99558 2.51847 7.99558 2.54274 7.9924C2.65379 7.99184 2.7622 7.95841 2.85429 7.89635C2.94638 7.83429 3.01805 7.74636 3.06025 7.64363C3.88854 5.6647 5.32594 4.00124 7.16381 2.89467C9.00167 1.78811 11.1444 1.29603 13.2809 1.48988H13.309ZM5.9965 19.4168C4.7094 18.3738 3.69968 17.0293 3.05695 15.5024C2.41423 13.9756 2.15837 12.3137 2.31212 10.6643C2.34505 10.7424 2.39523 10.8121 2.45889 10.8681C2.52254 10.9241 2.59803 10.965 2.67971 10.9877C2.76139 11.0104 2.84717 11.0144 2.93059 10.9993C3.01402 10.9842 3.09295 10.9504 3.1615 10.9005L3.43712 10.698C3.26601 12.4447 3.60935 14.2034 4.42487 15.7574C5.2404 17.3115 6.49252 18.5933 8.02713 19.4449C5.76025 19.4449 6.03588 19.4449 5.97963 19.4449L5.9965 19.4168ZM1.4965 20.5699H3.04901L3.33026 21.1324L3.04901 21.6949H1.4965C1.78338 21.0705 1.73837 21.1324 1.474 20.5699H1.4965ZM24.2102 22.2124C24.1989 22.0711 24.1347 21.9394 24.0304 21.8434C23.9261 21.7475 23.7895 21.6944 23.6477 21.6949H17.3084C17.9563 21.38 18.5723 21.0033 19.1477 20.5699H23.6477C23.7895 20.5703 23.9261 20.5173 24.0304 20.4214C24.1347 20.3254 24.1989 20.1936 24.2102 20.0524L25.5603 21.1324L24.2102 22.2124Z" fill="#424242"/>
<path d="M16.8752 11.5715C16.8752 11.4223 16.9345 11.2792 17.0399 11.1738C17.1454 11.0683 17.2885 11.009 17.4377 11.009H18.5627C18.4307 9.56913 17.7986 8.22096 16.7762 7.19856C15.7538 6.17615 14.4057 5.54409 12.9658 5.41211V6.50899C12.9658 6.65818 12.9066 6.80124 12.8011 6.90673C12.6956 7.01222 12.5525 7.07149 12.4033 7.07149C12.2541 7.07149 12.1111 7.01222 12.0056 6.90673C11.9001 6.80124 11.8408 6.65818 11.8408 6.50899V5.41211C10.401 5.54409 9.05279 6.17615 8.03039 7.19856C7.00799 8.22096 6.37593 9.56913 6.24395 11.009H7.31269C7.46188 11.009 7.60495 11.0683 7.71044 11.1738C7.81593 11.2792 7.87519 11.4223 7.87519 11.5715C7.87519 11.7207 7.81593 11.8637 7.71044 11.9692C7.60495 12.0747 7.46188 12.134 7.31269 12.134H6.21582C6.34156 13.5789 6.97087 14.9337 7.99385 15.9618C9.01682 16.9899 10.3685 17.626 11.8127 17.759V16.634C11.8127 16.4848 11.872 16.3417 11.9774 16.2363C12.0829 16.1308 12.226 16.0715 12.3752 16.0715C12.5244 16.0715 12.6675 16.1308 12.7729 16.2363C12.8784 16.3417 12.9377 16.4848 12.9377 16.634V17.759C14.387 17.6323 15.7452 16.9989 16.7739 15.9702C17.8026 14.9415 18.436 13.5833 18.5627 12.134H17.4377C17.2885 12.134 17.1454 12.0747 17.0399 11.9692C16.9345 11.8637 16.8752 11.7207 16.8752 11.5715ZM15.1596 9.58024L13.4721 11.2677C13.5197 11.4522 13.5197 11.6458 13.4721 11.8302L14.3777 12.7359C14.457 12.8145 14.5111 12.9151 14.5331 13.0246C14.5551 13.1342 14.5439 13.2478 14.5011 13.351C14.4582 13.4541 14.3856 13.5422 14.2925 13.604C14.1994 13.6658 14.09 13.6984 13.9783 13.6977C13.6802 13.6977 13.6408 13.5965 12.6733 12.629C12.5085 12.6743 12.3356 12.6815 12.1676 12.65C11.9996 12.6186 11.841 12.5492 11.7039 12.4473C11.5667 12.3454 11.4545 12.2135 11.3759 12.0618C11.2973 11.91 11.2543 11.7423 11.2502 11.5715C11.2505 11.3995 11.2903 11.2299 11.3664 11.0756C11.4426 10.9214 11.5531 10.7867 11.6894 10.6818C11.8258 10.577 11.9844 10.5048 12.153 10.4708C12.3216 10.4369 12.4957 10.442 12.6621 10.4859L14.3496 8.79837C14.455 8.6936 14.5975 8.63479 14.7461 8.63479C14.8947 8.63479 15.0373 8.6936 15.1427 8.79837C15.2503 8.8973 15.3152 9.03423 15.3236 9.18018C15.332 9.32613 15.2833 9.46961 15.1877 9.58024H15.1596Z" fill="#4C4DFF"/>
</g>
<defs>
<clipPath id="clip0_388_4620">
<rect width="27" height="23.9456" fill="white"/>
</clipPath>
</defs>
</svg>