<svg width="311" height="46" viewBox="0 0 311 46" fill="none" xmlns="http://www.w3.org/2000/svg">
<path d="M62.839 22.5C35.9264 22.5 22.9597 11.0462 0 11.0462V46H311V20.2H274.659C261.278 20.2 258.819 1 240.705 1C222.592 1 217.353 11.8923 200.233 11.8923C183.113 11.8923 181.591 20.2 159.76 20.2C137.93 20.2 134.613 9 117.93 9C101.246 9 89.7517 22.5 62.839 22.5Z" fill="url(#paint0_linear_388_4123)"/>
<path d="M0 11.0462C22.9597 11.0462 35.9264 22.5 62.839 22.5C89.7517 22.5 101.246 9 117.93 9C134.613 9 137.93 20.2 159.76 20.2C181.591 20.2 183.113 11.8923 200.233 11.8923C217.353 11.8923 222.592 1 240.705 1C258.819 1 261.278 20.2 274.659 20.2C288.04 20.2 311 20.2 311 20.2" stroke="#FFEC51"/>
<defs>
<linearGradient id="paint0_linear_388_4123" x1="155.5" y1="1" x2="155.5" y2="42.5" gradientUnits="userSpaceOnUse">
<stop stop-color="#FFEC51" stop-opacity="0.2"/>
<stop offset="1" stop-color="#FFEC51" stop-opacity="0"/>
</linearGradient>
</defs>
</svg>