<svg width="311" height="46" viewBox="0 0 311 46" fill="none" xmlns="http://www.w3.org/2000/svg">
<path d="M62.839 1C35.9264 1 22.9597 29.727 0 29.727V46H311V19.989H274.659C261.278 19.989 258.819 26.7143 240.705 26.7143C222.592 26.7143 217.353 7.81657 200.233 7.81657C183.113 7.81657 181.591 19.989 159.76 19.989C137.93 19.989 134.613 26.7143 117.93 26.7143C101.246 26.7143 89.7517 1 62.839 1Z" fill="url(#paint0_linear_388_4132)"/>
<path d="M0 30.0462C22.9597 30.0462 35.9264 1 62.839 1C89.7517 1 101.246 27 117.93 27C134.613 27 137.93 20.2 159.76 20.2C181.591 20.2 183.113 7.89231 200.233 7.89231C217.353 7.89231 222.592 27 240.705 27C258.819 27 261.278 20.2 274.659 20.2C288.04 20.2 311 20.2 311 20.2" stroke="#FE8658"/>
<defs>
<linearGradient id="paint0_linear_388_4132" x1="155.5" y1="1" x2="155.5" y2="46" gradientUnits="userSpaceOnUse">
<stop stop-color="#FE8658" stop-opacity="0.15"/>
<stop offset="1" stop-color="#FE8658" stop-opacity="0"/>
</linearGradient>
</defs>
</svg>