<svg width="22" height="20" viewBox="0 0 22 20" fill="none" xmlns="http://www.w3.org/2000/svg">
<path fill-rule="evenodd" clip-rule="evenodd" d="M14.2994 10.9017V16.4969C14.2994 16.9134 14.064 17.2943 13.6914 17.4806L9.29226 19.6801C8.56101 20.0458 7.70063 19.514 7.70063 18.6965V10.9017L0.250686 1.79622C-0.336841 1.07813 0.174064 0 1.10188 0H20.8981C21.8259 0 22.3368 1.07813 21.7493 1.79622L14.2994 10.9017ZM12.1 15.8172V10.5091C12.1 10.2552 12.1878 10.0092 12.3486 9.81269L18.5775 2.19958H3.42289L9.65179 9.81269C9.81256 10.0092 9.90039 10.2552 9.90039 10.5091V16.917L12.1 15.8172Z" fill="#4C4DFF"/>
</svg>