<svg width="28" height="34" viewBox="0 0 28 34" fill="none" xmlns="http://www.w3.org/2000/svg">
<path d="M8.24594 10.8327H17.088C18.5099 10.8327 19.667 9.66684 19.667 8.2342V5.2645C19.667 3.83186 18.5099 2.66602 17.088 2.66602H8.24594C6.82407 2.66602 5.66699 3.83186 5.66699 5.2645V8.2342C5.66699 9.66684 6.82407 10.8327 8.24594 10.8327ZM7.87752 5.2645C7.87752 5.06004 8.04301 4.89329 8.24594 4.89329H17.088C17.291 4.89329 17.4565 5.06004 17.4565 5.2645V8.2342C17.4565 8.43866 17.291 8.60541 17.088 8.60541H8.24594C8.04301 8.60541 7.87752 8.43866 7.87752 8.2342V5.2645Z" fill="#464A53"/>
<path d="M7.55927 21.3327H25.9414C26.9847 21.3327 27.8337 20.1668 27.8337 18.7342V15.7645C27.8337 14.3319 26.9847 13.166 25.9414 13.166H7.55927C6.51599 13.166 5.66699 14.3319 5.66699 15.7645V18.7342C5.66699 20.1668 6.51599 21.3327 7.55927 21.3327ZM7.28894 15.7645C7.28894 15.56 7.41037 15.3933 7.55927 15.3933H25.9414C26.0903 15.3933 26.2117 15.56 26.2117 15.7645V18.7342C26.2117 18.9387 26.0903 19.1054 25.9414 19.1054H7.55927C7.41037 19.1054 7.28894 18.9387 7.28894 18.7342V15.7645Z" fill="#464A53"/>
<path d="M7.83256 30.6667H21.8758C23.2307 30.6667 24.3333 29.6257 24.3333 28.3466V25.6951C24.3333 24.4159 23.2307 23.375 21.8758 23.375H7.83256C6.47762 23.375 5.375 24.4159 5.375 25.6951V28.3466C5.375 29.6257 6.47762 30.6667 7.83256 30.6667ZM7.48148 25.6951C7.48148 25.5125 7.63919 25.3636 7.83256 25.3636H21.8758C22.0691 25.3636 22.2269 25.5125 22.2269 25.6951V28.3466C22.2269 28.5291 22.0691 28.678 21.8758 28.678H7.83256C7.63919 28.678 7.48148 28.5291 7.48148 28.3466V25.6951Z" fill="#464A53"/>
<path d="M1 1L1 33" stroke="#464A53" stroke-width="2" stroke-linecap="round"/>
</svg>