<svg width="26" height="26" viewBox="0 0 26 26" fill="none" xmlns="http://www.w3.org/2000/svg">
<path fill-rule="evenodd" clip-rule="evenodd" d="M13 7C13.1989 7 13.3897 7.07902 13.5303 7.21967C13.671 7.36032 13.75 7.55109 13.75 7.75V12.25H18.25C18.4489 12.25 18.6397 12.329 18.7803 12.4697C18.921 12.6103 19 12.8011 19 13C19 13.1989 18.921 13.3897 18.7803 13.5303C18.6397 13.671 18.4489 13.75 18.25 13.75H13.75V18.25C13.75 18.4489 13.671 18.6397 13.5303 18.7803C13.3897 18.921 13.1989 19 13 19C12.8011 19 12.6103 18.921 12.4697 18.7803C12.329 18.6397 12.25 18.4489 12.25 18.25V13.75H7.75C7.55109 13.75 7.36032 13.671 7.21967 13.5303C7.07902 13.3897 7 13.1989 7 13C7 12.8011 7.07902 12.6103 7.21967 12.4697C7.36032 12.329 7.55109 12.25 7.75 12.25H12.25V7.75C12.25 7.55109 12.329 7.36032 12.4697 7.21967C12.6103 7.07902 12.8011 7 13 7Z" fill="#4C4DFF"/>
<circle cx="13" cy="13" r="12" stroke="#4C4DFF" stroke-width="2"/>
</svg>