<svg width="25" height="20" viewBox="0 0 25 20" fill="none" xmlns="http://www.w3.org/2000/svg">
<path fill-rule="evenodd" clip-rule="evenodd" d="M7.72381 7.14842C7.72381 5.88505 8.22568 4.67343 9.11901 3.78009C10.0124 2.88675 11.224 2.38488 12.4873 2.38488C13.7507 2.38488 14.9623 2.88675 15.8557 3.78009C16.749 4.67343 17.2509 5.88505 17.2509 7.14842V8.3393H18.4418C18.9891 8.3393 19.5311 8.44711 20.0368 8.65658C20.5425 8.86604 21.002 9.17306 21.389 9.5601C21.7761 9.94715 22.0831 10.4066 22.2926 10.9123C22.502 11.418 22.6098 11.96 22.6098 12.5074C22.6098 13.0547 22.502 13.5968 22.2926 14.1024C22.0831 14.6081 21.7761 15.0676 21.389 15.4547C21.002 15.8417 20.5425 16.1487 20.0368 16.3582C19.5311 16.5677 18.9891 16.6755 18.4418 16.6755H17.2509C16.935 16.6755 16.6321 16.8009 16.4088 17.0243C16.1855 17.2476 16.06 17.5505 16.06 17.8664C16.06 18.1822 16.1855 18.4851 16.4088 18.7084C16.6321 18.9318 16.935 19.0572 17.2509 19.0572H18.4418C20.0841 19.0593 21.6674 18.4443 22.8777 17.3341C24.088 16.2239 24.837 14.6996 24.9764 13.0631C25.1157 11.4266 24.6352 9.79756 23.63 8.49871C22.6248 7.19985 21.1684 6.32603 19.5493 6.05042C19.2877 4.36519 18.4321 2.82904 17.137 1.71946C15.8419 0.609872 14.1928 0 12.4873 0C10.7819 0 9.13274 0.609872 7.83765 1.71946C6.54256 2.82904 5.68697 4.36519 5.42541 6.05042C3.81162 6.33216 2.36191 7.20819 1.36203 8.50585C0.362155 9.80351 -0.11535 11.4287 0.0236376 13.0609C0.162626 14.6932 0.908024 16.2142 2.11291 17.3242C3.31779 18.4341 4.89474 19.0524 6.53293 19.0572H7.72381C8.03965 19.0572 8.34256 18.9318 8.56589 18.7084C8.78922 18.4851 8.91469 18.1822 8.91469 17.8664C8.91469 17.5505 8.78922 17.2476 8.56589 17.0243C8.34256 16.8009 8.03965 16.6755 7.72381 16.6755H6.53293C5.98557 16.6755 5.44356 16.5677 4.93787 16.3582C4.43217 16.1487 3.97268 15.8417 3.58564 15.4547C3.1986 15.0676 2.89158 14.6081 2.68211 14.1024C2.47265 13.5968 2.36484 13.0547 2.36484 12.5074C2.36484 11.96 2.47265 11.418 2.68211 10.9123C2.89158 10.4066 3.1986 9.94715 3.58564 9.5601C3.97268 9.17306 4.43217 8.86604 4.93787 8.65658C5.44356 8.44711 5.98557 8.3393 6.53293 8.3393H7.72381V7.14842ZM16.9019 11.07L13.3293 7.49734C13.106 7.27409 12.8031 7.14867 12.4873 7.14867C12.1716 7.14867 11.8687 7.27409 11.6454 7.49734L8.07274 11.07C7.959 11.1798 7.86827 11.3113 7.80586 11.4565C7.74345 11.6018 7.71059 11.7581 7.70922 11.9162C7.70785 12.0744 7.73798 12.2312 7.79786 12.3775C7.85774 12.5239 7.94616 12.6568 8.05798 12.7687C8.16979 12.8805 8.30276 12.9689 8.44911 13.0288C8.59547 13.0887 8.75228 13.1188 8.91041 13.1174C9.06853 13.116 9.2248 13.0832 9.37009 13.0208C9.51538 12.9584 9.64679 12.8676 9.75665 12.7539L11.2965 11.2141V17.8664C11.2965 18.1822 11.4219 18.4851 11.6453 18.7084C11.8686 18.9318 12.1715 19.0572 12.4873 19.0572C12.8032 19.0572 13.1061 18.9318 13.3294 18.7084C13.5528 18.4851 13.6782 18.1822 13.6782 17.8664V11.2141L15.218 12.7539C15.4426 12.9708 15.7435 13.0909 16.0557 13.0882C16.3679 13.0854 16.6666 12.9602 16.8874 12.7394C17.1082 12.5186 17.2335 12.2199 17.2362 11.9077C17.2389 11.5954 17.1189 11.2946 16.9019 11.07Z" fill="#4C4DFF"/>
</svg>