<svg width="23" height="23" viewBox="0 0 23 23" fill="none" xmlns="http://www.w3.org/2000/svg">
<path fill-rule="evenodd" clip-rule="evenodd" d="M12.9375 2.87514C12.9375 2.11261 13.2404 1.3813 13.7796 0.84211C14.3187 0.302916 15.05 0 15.8125 0H20.125C20.8875 0 21.6188 0.302916 22.1579 0.84211C22.6971 1.3813 23 2.11261 23 2.87514V7.18786C23 7.95039 22.6971 8.6817 22.1579 9.22089C21.6188 9.76008 20.8875 10.063 20.125 10.063H15.8125C15.05 10.063 14.3187 9.76008 13.7796 9.22089C13.2404 8.6817 12.9375 7.95039 12.9375 7.18786V2.87514ZM20.125 2.87514H15.8125V7.18786H20.125V2.87514ZM2.875 12.9381C2.1125 12.9381 1.38123 13.2411 0.842068 13.7803C0.302901 14.3194 0 15.0508 0 15.8133V20.126C0 20.8885 0.302901 21.6198 0.842068 22.159C1.38123 22.6982 2.1125 23.0011 2.875 23.0011H7.1875C7.95 23.0011 8.68126 22.6982 9.22043 22.159C9.7596 21.6198 10.0625 20.8885 10.0625 20.126V15.8133C10.0625 15.0508 9.7596 14.3194 9.22043 13.7803C8.68126 13.2411 7.95 12.9381 7.1875 12.9381H2.875ZM2.875 15.8133H7.1875V20.126H2.875V15.8133ZM15.8125 12.9381C15.05 12.9381 14.3187 13.2411 13.7796 13.7803C13.2404 14.3194 12.9375 15.0508 12.9375 15.8133V20.126C12.9375 20.8885 13.2404 21.6198 13.7796 22.159C14.3187 22.6982 15.05 23.0011 15.8125 23.0011H20.125C20.8875 23.0011 21.6188 22.6982 22.1579 22.159C22.6971 21.6198 23 20.8885 23 20.126V15.8133C23 15.0508 22.6971 14.3194 22.1579 13.7803C21.6188 13.2411 20.8875 12.9381 20.125 12.9381H15.8125ZM15.8125 15.8133H20.125V20.126H15.8125V15.8133ZM2.875 0C2.1125 0 1.38123 0.302916 0.842068 0.84211C0.302901 1.3813 0 2.11261 0 2.87514V7.18786C0 7.95039 0.302901 8.6817 0.842068 9.22089C1.38123 9.76008 2.1125 10.063 2.875 10.063H7.1875C7.95 10.063 8.68126 9.76008 9.22043 9.22089C9.7596 8.6817 10.0625 7.95039 10.0625 7.18786V2.87514C10.0625 2.11261 9.7596 1.3813 9.22043 0.84211C8.68126 0.302916 7.95 0 7.1875 0H2.875ZM2.875 2.87514H7.1875V7.18786H2.875V2.87514Z" fill="#282828"/>
</svg>
