<svg width="25" height="21" viewBox="0 0 25 21" fill="none" xmlns="http://www.w3.org/2000/svg">
<path fill-rule="evenodd" clip-rule="evenodd" d="M1.07384 2.24539C1.38317 1.81022 1.79187 1.45515 2.26599 1.20968C2.74011 0.9642 3.26595 0.835403 3.79984 0.833984H21.1998C22.3308 0.833984 23.318 1.40193 23.9258 2.24539C24.3403 2.823 24.5832 3.53474 24.5832 4.29845V16.7038C24.5832 18.5756 23.109 20.1683 21.1998 20.1683H3.79984C1.89067 20.1683 0.416504 18.5756 0.416504 16.7038V4.29845C0.416504 3.53474 0.65817 2.823 1.07384 2.24418V2.24539ZM3.96055 3.25077L11.6057 11.6672C11.7189 11.7918 11.857 11.8914 12.011 11.9595C12.1649 12.0276 12.3315 12.0628 12.4998 12.0628C12.6682 12.0628 12.8347 12.0276 12.9887 11.9595C13.1427 11.8914 13.2808 11.7918 13.394 11.6672L21.0391 3.25077H3.96055ZM22.1665 5.60472L15.1823 13.2925C14.8426 13.6663 14.4284 13.965 13.9665 14.1694C13.5045 14.3738 13.005 14.4794 12.4998 14.4794C11.9947 14.4794 11.4951 14.3738 11.0332 14.1694C10.5712 13.965 10.1571 13.6663 9.81734 13.2925L2.83317 5.60472V16.7038C2.83317 17.3249 3.30684 17.7515 3.79984 17.7515H21.1998C21.6928 17.7515 22.1665 17.3249 22.1665 16.7038V5.60472Z" fill="#282828"/>
</svg>
