<svg width="17" height="18" viewBox="0 0 17 18" fill="none" xmlns="http://www.w3.org/2000/svg">
<path fill-rule="evenodd" clip-rule="evenodd" d="M3.00004 0C2.20438 0 1.44131 0.316075 0.878691 0.878691C0.316075 1.44131 0 2.20438 0 3.00004L0 15.0002C0 15.7958 0.316075 16.5589 0.878691 17.1215C1.44131 17.6842 2.20438 18.0002 3.00004 18.0002H14.0002C14.2654 18.0002 14.5198 17.8949 14.7073 17.7073C14.8948 17.5198 15.0002 17.2654 15.0002 17.0002C15.0002 16.735 14.8948 16.4806 14.7073 16.2931C14.5198 16.1056 14.2654 16.0002 14.0002 16.0002H3.00004C2.73482 16.0002 2.48046 15.8948 2.29292 15.7073C2.10538 15.5198 2.00003 15.2654 2.00003 15.0002L2.00003 3.00004C2.00003 2.73482 2.10538 2.48046 2.29292 2.29292C2.48046 2.10538 2.73482 2.00003 3.00004 2.00003L14.0002 2.00003C14.2654 2.00003 14.5198 1.89467 14.7073 1.70713C14.8948 1.51959 15.0002 1.26523 15.0002 1.00001C15.0002 0.734793 14.8948 0.480436 14.7073 0.292897C14.5198 0.105358 14.2654 0 14.0002 0L3.00004 0ZM12.7072 4.29305C12.6149 4.19754 12.5046 4.12136 12.3826 4.06895C12.2606 4.01654 12.1293 3.98895 11.9966 3.9878C11.8638 3.98665 11.7321 4.01195 11.6092 4.06223C11.4863 4.11251 11.3746 4.18676 11.2807 4.28066C11.1869 4.37455 11.1126 4.48621 11.0623 4.6091C11.012 4.732 10.9867 4.86368 10.9879 4.99646C10.989 5.12924 11.0166 5.26047 11.069 5.38247C11.1214 5.50448 11.1976 5.61482 11.2931 5.70707L13.5862 8.0001L5.00006 8.0001C4.73484 8.0001 4.48049 8.10546 4.29295 8.293C4.10541 8.48054 4.00005 8.73489 4.00005 9.00011C4.00005 9.26533 4.10541 9.51969 4.29295 9.70723C4.48049 9.89477 4.73484 10.0001 5.00006 10.0001L13.5862 10.0001L11.2931 12.2932C11.111 12.4818 11.0102 12.7344 11.0125 12.9966C11.0147 13.2588 11.1199 13.5096 11.3053 13.695C11.4907 13.8804 11.7415 13.9856 12.0037 13.9878C12.2659 13.9901 12.5186 13.8893 12.7072 13.7072L16.7072 9.70712C16.8947 9.51959 17 9.26528 17 9.00011C17 8.73495 16.8947 8.48063 16.7072 8.2931L12.7072 4.29305V4.29305Z" fill="#282828"/>
</svg>
