<svg width="24" height="24" viewBox="0 0 24 24" fill="none" xmlns="http://www.w3.org/2000/svg">
<path fill-rule="evenodd" clip-rule="evenodd" d="M2.97198 8.12892L6.8621 6.75665C6.05892 7.83783 5.36912 8.99878 4.80359 10.2212L2.97198 8.12892ZM0.269844 8.35473L3.87306 12.4715L3.35161 13.7762C3.27225 13.9742 3.25269 14.1911 3.29535 14.4001C3.338 14.6091 3.441 14.801 3.59161 14.9521L3.93524 15.2946C2.07636 17.389 1.05092 19.5805 0.0560296 22.5629C-0.00807074 22.7551 -0.0173732 22.9613 0.0291649 23.1585C0.075703 23.3557 0.176243 23.5361 0.319515 23.6793C0.462787 23.8226 0.64313 23.9231 0.840331 23.9697C1.03753 24.0162 1.2438 24.0069 1.43601 23.9428C4.4185 22.948 6.6101 21.9226 8.70462 20.0638L9.04716 20.4063C9.19812 20.5571 9.38998 20.6603 9.599 20.7031C9.80802 20.746 10.025 20.7266 10.2231 20.6474L11.5278 20.126L15.6449 23.729C15.779 23.8464 15.9398 23.9292 16.1134 23.9701C16.2869 24.011 16.4678 24.0087 16.6402 23.9635C16.8127 23.9183 16.9714 23.8316 17.1025 23.7108C17.2337 23.59 17.3332 23.439 17.3925 23.2708L20.6499 14.0424C22.8134 11.4823 24.0003 8.23873 24 4.88695V1.09084C24 0.80153 23.8851 0.524071 23.6805 0.319499C23.4759 0.114927 23.1984 1.39265e-07 22.9091 1.39265e-07H19.1128C15.7614 -0.000469316 12.518 1.18596 9.95805 3.34887L0.729109 6.6072C0.561158 6.66651 0.410282 6.76603 0.289663 6.89708C0.169043 7.02813 0.0823483 7.18672 0.0371517 7.359C-0.00804493 7.53128 -0.0103687 7.712 0.0303837 7.88538C0.071136 8.05876 0.153725 8.21953 0.270935 8.35364L0.269844 8.35473ZM2.92944 21.0695C3.61452 19.4158 4.3825 18.1003 5.48103 16.8404L7.15882 18.5181C5.89884 19.6165 4.58323 20.3845 2.92944 21.0695ZM10.0813 18.3555L9.49878 17.773L6.22611 14.5005L5.64357 13.918L6.41811 11.9818C7.1289 10.2055 8.12692 8.55818 9.37224 7.10572L10.0006 6.37158C11.1273 5.05726 12.5251 4.00227 14.0979 3.27903C15.6708 2.5558 17.3816 2.18145 19.1128 2.18168H21.8182V4.88695C21.8184 6.61808 21.4441 8.32876 20.7208 9.90157C19.9975 11.4744 18.9425 12.8721 17.6281 13.9987L16.8939 14.627C15.4414 15.8723 13.794 16.8702 12.0177 17.581L10.0813 18.3555ZM15.8707 21.027L13.7784 19.1966C15.0008 18.6311 16.1618 17.9413 17.243 17.1382L15.8707 21.027ZM15.2729 7.63586C15.2729 7.34656 15.3878 7.0691 15.5924 6.86453C15.797 6.65995 16.0744 6.54503 16.3638 6.54503C16.6531 6.54503 16.9306 6.65995 17.1351 6.86453C17.3397 7.0691 17.4547 7.34656 17.4547 7.63586C17.4547 7.92517 17.3397 8.20263 17.1351 8.4072C16.9306 8.61178 16.6531 8.7267 16.3638 8.7267C16.0744 8.7267 15.797 8.61178 15.5924 8.4072C15.3878 8.20263 15.2729 7.92517 15.2729 7.63586ZM16.3638 4.36335C15.4958 4.36335 14.6634 4.70813 14.0496 5.32185C13.4359 5.93556 13.0911 6.76794 13.0911 7.63586C13.0911 8.50379 13.4359 9.33617 14.0496 9.94988C14.6634 10.5636 15.4958 10.9084 16.3638 10.9084C17.2317 10.9084 18.0641 10.5636 18.6779 9.94988C19.2916 9.33617 19.6364 8.50379 19.6364 7.63586C19.6364 6.76794 19.2916 5.93556 18.6779 5.32185C18.0641 4.70813 17.2317 4.36335 16.3638 4.36335Z" fill="#282828"/>
</svg>
