<svg width="25" height="28" viewBox="0 0 25 28" fill="none" xmlns="http://www.w3.org/2000/svg">
<path fill-rule="evenodd" clip-rule="evenodd" d="M7.38909 4.68567C8.14608 4.11187 9.0118 3.69791 9.93367 3.46892C9.89139 3.10684 9.92621 2.73992 10.0359 2.39226C10.1455 2.04461 10.3275 1.72409 10.5698 1.45178C10.8122 1.17948 11.1094 0.961549 11.442 0.812318C11.7746 0.663088 12.135 0.585938 12.4996 0.585938C12.8641 0.585938 13.2245 0.663088 13.5571 0.812318C13.8897 0.961549 14.1869 1.17948 14.4293 1.45178C14.6717 1.72409 14.8536 2.04461 14.9633 2.39226C15.0729 2.73992 15.1077 3.10684 15.0655 3.46892C15.9878 3.69775 16.854 4.11171 17.6113 4.68567C18.872 5.65442 19.6018 6.95255 20.0332 8.24809C20.462 9.5333 20.617 10.8728 20.692 12.0004C20.723 12.4589 20.7423 12.8994 20.7578 13.2882L20.7695 13.5504C20.7888 14.0154 20.8095 14.3641 20.8444 14.6199C21.0963 16.5083 21.4101 17.8323 21.857 18.8914C22.2936 19.926 22.8775 20.7592 23.7468 21.6285C23.9273 21.8091 24.0503 22.0392 24.1001 22.2898C24.15 22.5403 24.1244 22.7999 24.0266 23.0359C23.9289 23.2719 23.7634 23.4736 23.551 23.6156C23.3387 23.7575 23.089 23.8333 22.8335 23.8333H14.7374C14.9639 24.2261 15.0831 24.6715 15.0829 25.1249C15.0827 25.5782 14.9633 26.0236 14.7365 26.4162C14.5097 26.8087 14.1836 27.1347 13.791 27.3614C13.3983 27.588 12.9529 27.7073 12.4996 27.7073C12.0462 27.7073 11.6008 27.588 11.2082 27.3614C10.8155 27.1347 10.4894 26.8087 10.2626 26.4162C10.0359 26.0236 9.91639 25.5782 9.91623 25.1249C9.91608 24.6715 10.0352 24.2261 10.2618 23.8333H2.16688C1.91145 23.8333 1.66178 23.7575 1.44941 23.6156C1.23705 23.4736 1.07154 23.2719 0.973796 23.0359C0.876055 22.7999 0.850476 22.5403 0.900293 22.2898C0.950109 22.0392 1.07308 21.8091 1.25367 21.6285C2.12425 20.7579 2.70809 19.9312 3.14338 18.9005C3.58771 17.8452 3.90159 16.5212 4.15605 14.6199C4.19092 14.3628 4.21159 14.0154 4.23096 13.5491L4.24259 13.2882C4.25809 12.9007 4.27746 12.4589 4.30717 12.0004C4.38338 10.8728 4.53838 9.5333 4.96592 8.24809C5.39863 6.95255 6.12842 5.65313 7.38909 4.68567V4.68567ZM4.83934 21.25C5.0938 20.8289 5.31984 20.3846 5.52263 19.9054C6.09742 18.5453 6.45005 16.9617 6.71742 14.9635C6.76724 14.5314 6.7987 14.0975 6.81171 13.6628L6.82463 13.3838C6.84013 12.9963 6.85692 12.5958 6.88534 12.1735C6.95509 11.122 7.092 10.0396 7.4175 9.06442C7.74042 8.09955 8.22609 7.3 8.96234 6.73425C9.69084 6.17496 10.7849 5.75 12.5002 5.75C14.2155 5.75 15.3096 6.17496 16.0381 6.73425C16.7743 7.3 17.2613 8.09955 17.5829 9.06442C17.9084 10.0396 18.0453 11.122 18.1151 12.1735C18.1435 12.5958 18.1603 12.9963 18.1758 13.3825L18.1887 13.6615C18.2081 14.1135 18.2313 14.5747 18.283 14.9635C18.5491 16.95 18.9017 18.5323 19.4765 19.895C19.6793 20.3768 19.9079 20.825 20.1637 21.25H4.84063H4.83934Z" fill="#282828"/>
</svg>
