<svg width="30" height="30" viewBox="0 0 30 30" fill="none" xmlns="http://www.w3.org/2000/svg">
<g clip-path="url(#clip0_388_4594)">
<path d="M15 6.25C13.2694 6.25 11.5777 6.76318 10.1388 7.72464C8.69983 8.6861 7.57832 10.0527 6.91606 11.6515C6.25379 13.2504 6.08051 15.0097 6.41813 16.707C6.75575 18.4044 7.58911 19.9635 8.81282 21.1872C10.0365 22.4109 11.5956 23.2442 13.293 23.5819C14.9903 23.9195 16.7496 23.7462 18.3485 23.0839C19.9473 22.4217 21.3139 21.3002 22.2754 19.8612C23.2368 18.4223 23.75 16.7306 23.75 15C23.75 12.6794 22.8281 10.4538 21.1872 8.81282C19.5462 7.17187 17.3206 6.25 15 6.25ZM15 21.25C13.7639 21.25 12.5555 20.8834 11.5277 20.1967C10.4999 19.5099 9.6988 18.5338 9.22576 17.3918C8.75271 16.2497 8.62894 14.9931 8.8701 13.7807C9.11125 12.5683 9.70651 11.4547 10.5806 10.5806C11.4547 9.7065 12.5683 9.11125 13.7807 8.87009C14.9931 8.62893 16.2497 8.7527 17.3918 9.22575C18.5338 9.6988 19.5099 10.4999 20.1967 11.5277C20.8834 12.5555 21.25 13.7639 21.25 15C21.25 16.6576 20.5915 18.2473 19.4194 19.4194C18.2473 20.5915 16.6576 21.25 15 21.25Z" fill="#BFBFBF"/>
<path d="M15.625 3.75V2.5H16.25L15 0L13.75 2.5H14.375V3.75H15.625Z" fill="#4C4DFF"/>
<path d="M23.4002 7.48828L24.2814 6.60078L24.7252 7.04453L25.6064 4.39453L22.9564 5.27578L23.4002 5.71953L22.5127 6.60078L23.4002 7.48828Z" fill="#4C4DFF"/>
<path d="M26.25 15.625H27.5V16.25L30 15L27.5 13.75V14.375H26.25V15.625Z" fill="#4C4DFF"/>
<path d="M22.5127 23.3992L23.4002 24.2805L22.9564 24.7242L25.6064 25.6055L24.7252 22.9555L24.2814 23.3992L23.4002 22.5117L22.5127 23.3992Z" fill="#4C4DFF"/>
<path d="M14.375 26.25V27.5H13.75L15 30L16.25 27.5H15.625V26.25H14.375Z" fill="#4C4DFF"/>
<path d="M6.5998 22.5117L5.71855 23.3992L5.2748 22.9555L4.39355 25.6055L7.04355 24.7242L6.5998 24.2805L7.4873 23.3992L6.5998 22.5117Z" fill="#4C4DFF"/>
<path d="M3.75 14.375H2.5V13.75L0 15L2.5 16.25V15.625H3.75V14.375Z" fill="#4C4DFF"/>
<path d="M7.4873 6.60078L6.5998 5.71953L7.04355 5.27578L4.39355 4.39453L5.2748 7.04453L5.71855 6.60078L6.5998 7.48828L7.4873 6.60078Z" fill="#4C4DFF"/>
<path d="M15 5.625C13.1458 5.625 11.3332 6.17483 9.79153 7.20497C8.24982 8.23511 7.04821 9.69929 6.33863 11.4123C5.62906 13.1254 5.44341 15.0104 5.80514 16.829C6.16688 18.6475 7.05976 20.318 8.37088 21.6291C9.682 22.9402 11.3525 23.8331 13.171 24.1949C14.9896 24.5566 16.8746 24.3709 18.5877 23.6614C20.3007 22.9518 21.7649 21.7502 22.795 20.2085C23.8252 18.6668 24.375 16.8542 24.375 15C24.375 12.5136 23.3873 10.129 21.6291 8.37087C19.871 6.61272 17.4864 5.625 15 5.625ZM15 23.125C13.393 23.125 11.8221 22.6485 10.486 21.7557C9.14985 20.8629 8.10845 19.594 7.49348 18.1093C6.87852 16.6247 6.71762 14.991 7.03112 13.4149C7.34463 11.8388 8.11846 10.3911 9.25476 9.25476C10.3911 8.11846 11.8388 7.34462 13.4149 7.03112C14.991 6.71761 16.6247 6.87852 18.1093 7.49348C19.594 8.10844 20.8629 9.14984 21.7557 10.486C22.6485 11.8221 23.125 13.393 23.125 15C23.125 17.1549 22.269 19.2215 20.7452 20.7452C19.2215 22.269 17.1549 23.125 15 23.125Z" fill="#424242"/>
<path d="M15 8.125C13.6403 8.125 12.311 8.52821 11.1805 9.28365C10.0499 10.0391 9.16868 11.1128 8.64833 12.3691C8.12798 13.6253 7.99183 15.0076 8.2571 16.3412C8.52238 17.6749 9.17716 18.8999 10.1386 19.8614C11.1001 20.8228 12.3251 21.4776 13.6588 21.7429C14.9924 22.0082 16.3747 21.872 17.631 21.3517C18.8872 20.8313 19.9609 19.9501 20.7164 18.8195C21.4718 17.689 21.875 16.3597 21.875 15C21.875 13.1766 21.1507 11.428 19.8614 10.1386C18.5721 8.84933 16.8234 8.125 15 8.125ZM15 20.625C13.8875 20.625 12.7999 20.2951 11.8749 19.677C10.9499 19.0589 10.2289 18.1804 9.80318 17.1526C9.37744 16.1248 9.26604 14.9938 9.48309 13.9026C9.70013 12.8115 10.2359 11.8092 11.0225 11.0225C11.8092 10.2359 12.8115 9.70012 13.9026 9.48308C14.9938 9.26604 16.1248 9.37743 17.1526 9.80318C18.1804 10.2289 19.0589 10.9499 19.677 11.8749C20.2951 12.7999 20.625 13.8875 20.625 15C20.625 16.4918 20.0324 17.9226 18.9775 18.9775C17.9226 20.0324 16.4918 20.625 15 20.625Z" fill="#424242"/>
<path d="M15.0002 14.375C14.8766 14.375 14.7558 14.3383 14.653 14.2697C14.5502 14.201 14.4701 14.1034 14.4228 13.9892C14.3755 13.875 14.3631 13.7493 14.3872 13.6281C14.4113 13.5068 14.4709 13.3955 14.5583 13.3081C14.6457 13.2206 14.757 13.1611 14.8783 13.137C14.9995 13.1129 15.1252 13.1253 15.2394 13.1726C15.3536 13.2199 15.4512 13.3 15.5199 13.4028C15.5886 13.5055 15.6252 13.6264 15.6252 13.75C15.6252 13.9158 15.6911 14.0747 15.8083 14.1919C15.9255 14.3092 16.0844 14.375 16.2502 14.375C17.2877 14.375 17.0065 12.5 15.6252 11.9875V11.875C15.6252 11.7092 15.5594 11.5503 15.4422 11.4331C15.3249 11.3158 15.166 11.25 15.0002 11.25C14.8344 11.25 14.6755 11.3158 14.5583 11.4331C14.4411 11.5503 14.3752 11.7092 14.3752 11.875V11.9875C13.9619 12.1375 13.6144 12.428 13.3935 12.8082C13.1726 13.1884 13.0924 13.6342 13.1668 14.0676C13.2413 14.5009 13.4657 14.8944 13.8008 15.1791C14.136 15.4637 14.5605 15.6216 15.0002 15.625C15.1238 15.625 15.2447 15.6617 15.3474 15.7303C15.4502 15.799 15.5303 15.8966 15.5776 16.0108C15.6249 16.125 15.6373 16.2507 15.6132 16.3719C15.5891 16.4932 15.5296 16.6045 15.4422 16.6919C15.3547 16.7794 15.2434 16.8389 15.1221 16.863C15.0009 16.8871 14.8752 16.8747 14.761 16.8274C14.6468 16.7801 14.5492 16.7 14.4805 16.5972C14.4119 16.4945 14.3752 16.3736 14.3752 16.25C14.3752 16.0842 14.3094 15.9253 14.1922 15.8081C14.0749 15.6908 13.916 15.625 13.7502 15.625C12.7127 15.625 12.994 17.5 14.3752 18.0125V18.125C14.3752 18.2908 14.4411 18.4497 14.5583 18.5669C14.6755 18.6842 14.8344 18.75 15.0002 18.75C15.166 18.75 15.3249 18.6842 15.4422 18.5669C15.5594 18.4497 15.6252 18.2908 15.6252 18.125V18.0125C16.0386 17.8625 16.3861 17.572 16.6069 17.1918C16.8278 16.8116 16.908 16.3658 16.8336 15.9324C16.7591 15.4991 16.5347 15.1056 16.1996 14.8209C15.8645 14.5363 15.4399 14.3784 15.0002 14.375Z" fill="#4C4DFF"/>
</g>
<defs>
<clipPath id="clip0_388_4594">
<rect width="30" height="30" fill="white"/>
</clipPath>
</defs>
</svg>